<svg width="99" height="49" viewBox="0 0 99 49" fill="none" xmlns="http://www.w3.org/2000/svg">
<g clip-path="url(#clip0_1042_6565)">
<path d="M66.7628 4.17612C68.9661 4.71 71.2141 5.10492 73.3653 5.7997C77.9506 7.28433 82.5433 8.78358 87.0169 10.5534C90.5079 11.9357 93.4854 14.1882 95.8152 17.1575C99.9986 22.4743 99.9911 28.4275 95.778 33.7151C93.6938 36.3333 91.0364 38.3006 88.1409 39.9754C81.9031 43.5882 75.0997 45.636 68.0357 46.8866C55.6867 49.0733 43.2708 49.3951 30.8251 47.7861C24.5129 46.9743 18.357 45.5116 12.5659 42.791C9.82667 41.5039 7.26607 39.9681 5.07021 37.8837C0.179756 33.2324 -0.61671 27.2207 2.919 21.5016C4.80224 18.4519 7.40006 16.0458 10.3031 13.9615C17.8286 8.54224 26.2398 4.94403 35.2764 2.82313C49.6723 -0.562987 64.165 -0.987166 78.6949 2.05522C79.8561 2.29657 81.0025 2.63298 82.1264 3.00597C83.7864 3.56179 84.3298 4.22731 84.0767 5.2C83.8236 6.18 82.975 6.33358 81.263 5.99716C77.4593 5.25119 73.6407 4.57104 69.8147 3.94209C68.8322 3.78119 67.8049 3.92015 66.8 3.92015C66.7852 4.00791 66.7703 4.09567 66.7628 4.18343V4.17612ZM46.2483 45.5701C52.017 45.0948 57.8082 44.8022 63.5472 44.0928C70.7377 43.2079 77.7273 41.4307 84.233 38.1616C87.2179 36.6624 90.1134 34.9803 92.2498 32.406C93.4258 30.9872 94.5275 29.3416 95.0783 27.6157C96.2693 23.8639 94.5647 20.763 92.019 18.0716C89.9869 15.9215 87.4858 14.3857 84.7615 13.2667C70.373 7.36477 55.456 4.80507 39.8616 6.5091C38.0826 6.70656 36.3036 7.38671 34.4576 6.69925C34.0854 6.5603 33.5346 6.82358 33.088 6.95522C26.1058 8.95179 19.5406 11.826 13.541 15.8995C10.9804 17.6328 8.60592 19.5855 6.74502 22.0575C2.87434 27.1769 3.47728 32.2158 8.49427 36.2382C9.77457 37.2694 11.174 38.2201 12.6552 38.9369C14.9255 40.0339 17.2628 41.0431 19.6671 41.811C28.2943 44.5682 37.2192 45.2484 46.2483 45.5628V45.5701Z" fill="#F5584C"/>
</g>
<defs>
<clipPath id="clip0_1042_6565">
<rect width="99" height="49" fill="white"/>
</clipPath>
</defs>
</svg>
