<svg width="970" height="250" viewBox="0 0 970 250" fill="none" xmlns="http://www.w3.org/2000/svg">
<rect width="970" height="250" fill="#E4E7E9"/>
<path d="M467.901 109V134.329H471.902V109H467.901Z" fill="#A8B0B8"/>
<path d="M460.955 122.817V129.71C460.955 131.051 461.396 131.748 462.784 131.748C463.267 131.753 463.747 131.675 464.203 131.518L464.265 134.084C463.363 134.387 462.419 134.547 461.466 134.559C457.543 134.559 456.814 132.491 456.814 129.404V122.817H454.489V119.822H456.814V115.127H460.97V119.822H464.42V122.817H460.955Z" fill="#A8B0B8"/>
<path fill-rule="evenodd" clip-rule="evenodd" d="M438.285 121.837C440.104 120.235 442.461 119.359 444.898 119.378C449.348 119.378 451.17 121.768 451.17 127.037V130.101C451.17 132.016 452.721 131.748 452.721 131.748L452.837 134.199C452.271 134.527 451.625 134.694 450.969 134.681C449.641 134.751 448.395 134.047 447.782 132.881C447.782 132.881 446.472 134.589 443.247 134.589C440.921 134.589 437.626 133.594 437.626 130.185C437.626 125.988 442.611 124.954 447.604 125.061V124.954C447.604 123.154 446.154 122.381 444.425 122.381C442.917 122.312 441.447 122.867 440.37 123.912L438.285 121.837ZM447.441 127.964H446.604C444.479 127.964 441.463 128.286 441.463 130.001C441.463 131.717 443.216 131.824 444.185 131.824C445.804 131.955 447.239 130.798 447.433 129.205L447.441 127.964Z" fill="#A8B0B8"/>
<path fill-rule="evenodd" clip-rule="evenodd" d="M475.956 121.837C477.772 120.239 480.123 119.363 482.554 119.378C487.005 119.378 488.826 121.768 488.826 127.037V130.101C488.826 132.016 490.377 131.748 490.377 131.748L490.493 134.199C489.927 134.527 489.28 134.694 488.625 134.681C487.297 134.751 486.051 134.047 485.438 132.881C485.438 132.881 484.128 134.589 480.903 134.589C478.577 134.589 475.282 133.594 475.282 130.185C475.282 125.988 480.267 124.954 485.26 125.061V124.954C485.26 123.154 483.81 122.381 482.081 122.381C480.573 122.312 479.103 122.867 478.027 123.912L475.956 121.837ZM485.113 127.964H484.283C482.159 127.964 479.143 128.286 479.143 130.001C479.143 131.717 480.895 131.824 481.864 131.824C483.484 131.955 484.918 130.798 485.113 129.205V127.964Z" fill="#A8B0B8"/>
<path d="M503.045 134.329V126.401C503.045 124.801 502.27 123.338 500.564 123.338C498.858 123.338 497.874 124.793 497.874 126.455V134.329H493.928V119.692H497.804V121.829H497.866C498.878 120.437 500.529 119.64 502.262 119.707C506.216 119.707 507.077 122.487 507.077 125.398V134.367L503.045 134.329Z" fill="#A8B0B8"/>
<path d="M412.592 126.394V134.359H416.623V125.383C416.623 122.472 415.762 119.692 411.809 119.692C410.076 119.625 408.424 120.422 407.413 121.814H407.351V119.677H403.474V134.313H407.42V126.447C407.42 124.785 408.405 123.33 410.111 123.33C411.816 123.33 412.592 124.793 412.592 126.394Z" fill="#A8B0B8"/>
<path fill-rule="evenodd" clip-rule="evenodd" d="M435.874 116.667V119.47H434.54C432.986 119.47 432.678 120.063 432.442 120.518L432.441 120.521C432.409 120.582 432.378 120.641 432.346 120.696C433.739 121.421 434.61 122.848 434.61 124.403C434.61 127.788 432.129 129.764 427.252 129.764C426.291 129.836 425.326 129.67 424.446 129.282C424.403 129.303 424.353 129.324 424.298 129.347C423.972 129.485 423.485 129.692 423.485 130.308C423.485 131.307 424.952 131.296 425.742 131.289L425.822 131.289C425.851 131.289 425.878 131.288 425.903 131.288H430.687C432.086 131.191 433.472 131.62 434.563 132.491C435.486 133.318 435.905 134.161 435.905 136.19C435.905 138.756 433.858 141 427.198 141C422.151 141 419.662 139.392 419.662 136.742C419.626 135.397 420.386 134.156 421.608 133.563C420.702 132.953 420.149 131.95 420.12 130.867C420.103 129.553 420.872 128.352 422.081 127.803C421.008 126.884 420.411 125.537 420.453 124.135C420.458 122.821 421.055 121.577 422.081 120.742C423.508 119.66 425.278 119.117 427.074 119.21C428.047 119.208 429.017 119.313 429.966 119.524C430.457 117.77 432.102 116.578 433.943 116.644L435.874 116.667ZM423.57 134.352C423.57 134.352 422.686 134.911 422.686 135.631C422.671 136.377 423.046 137.078 423.678 137.485C424.523 138.059 425.035 138.151 426.865 138.159H427.973C431.71 138.159 431.958 136.673 431.951 135.953C431.951 135.432 431.602 134.505 429.563 134.505H425.748C425.018 134.546 424.286 134.494 423.57 134.352ZM430.54 124.242C430.59 124.923 430.332 125.591 429.834 126.065C429.185 126.603 428.354 126.877 427.508 126.831C426.663 126.873 425.833 126.599 425.182 126.065C424.674 125.632 424.389 124.997 424.407 124.334C424.424 123.718 424.706 123.138 425.182 122.741C425.796 122.268 426.561 122.029 427.338 122.067C429.935 122.067 430.54 123.369 430.54 124.242Z" fill="#A8B0B8"/>
<path d="M395 119.692H398.946V134.329H395V119.692Z" fill="#A8B0B8"/>
<path d="M394.91 116.414C395.475 116.944 396.229 117.231 397.008 117.21C398.076 117.265 399.087 116.734 399.637 115.828C400.187 114.923 400.187 113.792 399.637 112.886C399.087 111.981 398.076 111.45 397.008 111.504C395.377 111.491 394.038 112.774 394 114.384C394.018 115.153 394.346 115.884 394.91 116.414Z" fill="#A8B0B8"/>
<path d="M528.303 122.833C529.274 122.833 530.932 123.231 531.459 123.928L533.638 121.316C532.514 120.152 530.304 119.662 528.211 119.662C523.645 119.662 520.016 122.281 520.016 127.083C520.016 131.886 523.59 134.505 528.242 134.505C530.397 134.505 532.459 134.099 533.669 132.935L531.583 130.285C530.994 130.982 529.342 131.204 528.366 131.204C526.81 131.28 525.337 130.507 524.53 129.191C523.723 127.875 523.71 126.228 524.498 124.9C525.285 123.573 526.748 122.779 528.303 122.833Z" fill="#A8B0B8"/>
<path fill-rule="evenodd" clip-rule="evenodd" d="M537.526 132.344C538.937 133.75 540.875 134.519 542.879 134.467C544.887 134.523 546.83 133.757 548.246 132.35C549.663 130.943 550.428 129.021 550.362 127.037C550.362 122.488 546.957 119.7 542.879 119.7C540.883 119.622 538.945 120.369 537.53 121.761C536.115 123.153 535.35 125.065 535.421 127.037C535.352 129.017 536.114 130.937 537.526 132.344ZM546.422 126.984C546.422 129.251 544.857 131.089 542.926 131.089L542.918 131.097C540.988 131.097 539.429 129.251 539.429 126.984C539.429 124.717 540.98 122.878 542.926 122.878C544.872 122.878 546.422 124.717 546.422 126.984Z" fill="#A8B0B8"/>
<path d="M513.566 134.62C512.787 134.641 512.032 134.354 511.468 133.824C510.903 133.293 510.576 132.563 510.558 131.794C510.592 130.18 511.932 128.893 513.566 128.906C514.633 128.852 515.644 129.383 516.195 130.288C516.745 131.194 516.745 132.325 516.195 133.23C515.644 134.135 514.633 134.667 513.566 134.612V134.62Z" fill="#A8B0B8"/>
<path d="M572.015 134.329V126.401C572.015 124.739 571.333 123.338 569.627 123.338C567.922 123.338 566.883 124.869 566.883 126.486V134.329H562.936V126.057C562.966 125.338 562.695 124.639 562.185 124.126C561.676 123.612 560.974 123.33 560.246 123.345C558.696 123.345 557.828 124.716 557.828 126.463V134.329H553.882V119.692H557.68V121.829H557.742C558.416 120.603 559.92 119.707 562.138 119.707C564.032 119.702 565.757 120.784 566.557 122.48C567.504 120.81 569.272 119.757 571.209 119.707C575.186 119.707 575.954 122.618 575.954 125.352V134.329H572.015Z" fill="#A8B0B8"/>
</svg>
