<svg width="66" height="66" viewBox="0 0 66 66" fill="none" xmlns="http://www.w3.org/2000/svg">
<g clip-path="url(#clip0_4653_18265)">
<path d="M7.31 3L15.94 11.62L54.12 49.81L62.75 58.43V24.49L41.25 3H7.31Z" fill="#D35630"/>
<path d="M3.21002 0H34.95C37.07 0 39.11 0.84 40.61 2.34L41.26 2.99H3.66002L3.21002 0Z" fill="#D35630"/>
<path d="M7.31 3.0002L5.65 1.3402C5.39 1.0802 5.11 0.830198 4.81 0.610198C2.84 -0.879802 0 0.520198 0 3.0002H7.31Z" fill="#101113"/>
<path d="M65.74 62.53V30.79C65.74 28.67 64.9 26.63 63.4 25.13L62.75 24.48V62.08L65.74 62.52V62.53Z" fill="#D35630"/>
<path d="M62.75 58.4302L64.41 60.0902C64.67 60.3502 64.92 60.6302 65.14 60.9302C66.64 62.9102 65.24 65.7502 62.76 65.7502V58.4402L62.75 58.4302Z" fill="#101113"/>
<path d="M41.168 14.1265L42.6332 15.5916L38.3962 19.8286C38.0728 20.152 37.8418 20.4622 37.7032 20.7592C37.5778 21.0562 37.5514 21.3532 37.624 21.6501C37.7032 21.9405 37.8913 22.2342 38.1883 22.5312C38.4853 22.8282 38.7757 23.013 39.0595 23.0856C39.3564 23.1582 39.6534 23.1318 39.9504 23.0064C40.254 22.8744 40.5675 22.6467 40.8909 22.3233L45.1278 18.0863L46.593 19.5514L42.5144 23.63C41.8346 24.3098 41.1878 24.7784 40.5741 25.0358C39.9603 25.2932 39.3498 25.3295 38.7427 25.1447C38.1421 24.9533 37.5118 24.5276 36.8519 23.8676C36.1919 23.2077 35.7662 22.5774 35.5748 21.9768C35.39 21.3697 35.4263 20.7592 35.6837 20.1454C35.9411 19.5316 36.4097 18.8849 37.0895 18.2051L41.168 14.1265ZM47.5235 16.1658L44.4547 16.5816L44.0092 15.2848L46.9098 14.3443L47.5235 16.1658ZM48.3817 21.3402L51.9851 24.9436L47.075 29.8537C46.6526 30.2761 46.1906 30.5533 45.689 30.6853C45.194 30.8239 44.6859 30.8107 44.1645 30.6457C43.6563 30.4807 43.1646 30.1606 42.6895 29.6854C42.0097 29.0057 41.6599 28.2995 41.6401 27.5669C41.6269 26.841 41.8612 26.1381 42.343 25.4584L44.0259 26.5869C43.7883 26.9301 43.6629 27.2535 43.6497 27.557C43.6431 27.854 43.7553 28.118 43.9863 28.349C44.2041 28.5668 44.4582 28.6823 44.7486 28.6955C45.0456 28.7153 45.3425 28.5767 45.6395 28.2797L49.2726 24.6466L47.1739 22.5479L48.3817 21.3402Z" fill="white"/>
</g>
<defs>
<clipPath id="clip0_4653_18265">
<rect width="65.75" height="65.75" fill="white"/>
</clipPath>
</defs>
</svg>
