<svg width="142" height="101" viewBox="0 0 142 101" fill="none" xmlns="http://www.w3.org/2000/svg">
<path d="M22.0266 47.6898H18.0436C17.9235 46.4842 17.7281 44.8429 17.5103 43.0852C16.5225 42.8148 15.5836 42.4223 14.7123 41.9265C13.3226 42.9706 12.0081 44.0035 11.0711 44.7978L7.27024 40.997C8.03829 40.0599 9.05985 38.7604 10.149 37.3633C9.65326 36.492 9.26079 35.5549 8.99038 34.5653C7.27024 34.3211 5.61207 34.1221 4.38581 34.0225V28.648C5.59141 28.5279 7.23268 28.3326 8.99038 28.1147C9.26267 27.127 9.65326 26.188 10.149 25.3167C9.10492 23.9271 8.07209 22.6125 7.27775 21.6755L11.0786 17.8747C12.0156 18.6427 13.3151 19.6643 14.7123 20.7534C15.5836 20.2577 16.5207 19.8652 17.5103 19.5948C17.7544 17.8747 17.9535 16.2165 18.053 14.9902H22.0266V24.8172H20.7365C17.1347 24.8172 14.2146 27.7373 14.2146 31.3391C14.2146 34.9408 17.1347 37.8609 20.7365 37.8609H22.0266V47.6879V47.6898Z" fill="white"/>
<path d="M18.0428 48.105H22.0257C22.2548 48.105 22.4389 47.9191 22.4389 47.6919C22.4389 47.4647 22.253 47.2788 22.0257 47.2788H18.4165C18.2869 46.0337 18.0953 44.4507 17.9207 43.0366C17.9 42.8695 17.7817 42.7324 17.6184 42.6874C16.6738 42.4282 15.7649 42.0526 14.9161 41.5681C14.7734 41.4855 14.595 41.4968 14.4616 41.5963C13.1603 42.5747 11.9791 43.5005 11.0946 44.2385L7.82521 40.9691C8.60828 40.0039 9.59418 38.7457 10.473 37.619C10.5763 37.4875 10.5895 37.3053 10.5068 37.1589C10.0223 36.3082 9.64675 35.3993 9.3876 34.4566C9.34441 34.297 9.20921 34.1806 9.04771 34.1561C7.43837 33.927 5.94921 33.7468 4.79995 33.6435V29.022C6.05062 28.8925 7.63179 28.699 9.0402 28.5263C9.20733 28.5056 9.34441 28.3873 9.3876 28.2258C9.64675 27.2794 10.0242 26.3705 10.5068 25.5235C10.5895 25.3808 10.5782 25.2024 10.4787 25.071C9.50779 23.7771 8.58012 22.5959 7.83647 21.7039L11.1059 18.4345C12.0673 19.2139 13.3274 20.2016 14.456 21.0823C14.5875 21.1856 14.7696 21.1988 14.9161 21.1162C15.7668 20.6317 16.6757 20.2561 17.6184 19.9969C17.778 19.9537 17.8944 19.8204 17.9188 19.657C18.1479 18.0477 18.3282 16.5585 18.4315 15.4093H22.0257C22.2548 15.4093 22.4389 15.2234 22.4389 14.9961C22.4389 14.7689 22.253 14.583 22.0257 14.583H18.0521C17.8362 14.583 17.6578 14.7483 17.639 14.9642C17.5489 16.0816 17.3705 17.6045 17.1357 19.2777C16.3095 19.5237 15.5076 19.8561 14.7489 20.2655C13.5621 19.3378 12.2645 18.3181 11.3387 17.5613C11.1735 17.4261 10.935 17.4393 10.7847 17.5895L6.98392 21.3903C6.83181 21.5424 6.82242 21.7866 6.96139 21.9499C7.69188 22.8119 8.64396 24.0137 9.65614 25.3564C9.24676 26.1132 8.91439 26.915 8.66651 27.7432C7.18674 27.9253 5.55861 28.1206 4.34362 28.2427C4.13142 28.2634 3.96993 28.4418 3.96993 28.654V34.0285C3.96993 34.2444 4.13519 34.4228 4.34926 34.4416C5.46472 34.5317 6.98956 34.7101 8.66275 34.9449C8.90875 35.7711 9.24113 36.573 9.65051 37.3316C8.7266 38.5147 7.7069 39.8123 6.94636 40.7419C6.81115 40.9071 6.8243 41.1456 6.97453 41.2958L10.7754 45.0967C10.9275 45.2488 11.1716 45.2582 11.335 45.1192C12.1875 44.3962 13.3912 43.4441 14.7414 42.4245C15.5001 42.8357 16.3001 43.1662 17.1282 43.4122C17.3104 44.8957 17.5076 46.5295 17.6277 47.7351C17.6484 47.9473 17.8268 48.1088 18.039 48.1088L18.0428 48.105ZM18.4334 37.8593C18.6005 37.8593 18.7582 37.7579 18.8202 37.5908C18.901 37.3767 18.7939 37.1382 18.5798 37.0575C17.7799 36.7551 17.0644 36.2969 16.4541 35.696C16.2907 35.5364 16.0297 35.5383 15.8682 35.7016C15.7085 35.865 15.7104 36.126 15.8738 36.2875C16.5686 36.9711 17.3799 37.4913 18.2888 37.833C18.3376 37.8518 18.3864 37.8593 18.4352 37.8593H18.4334ZM14.4316 33.4313C14.4673 33.4313 14.5029 33.4275 14.5386 33.4181C14.7602 33.3599 14.8917 33.1327 14.8335 32.913C14.6982 32.4041 14.6307 31.8745 14.6307 31.3431C14.6307 27.9742 17.3705 25.2343 20.7394 25.2343H22.0295C22.2586 25.2343 22.4426 25.0484 22.4426 24.8212C22.4426 24.594 22.2567 24.4081 22.0295 24.4081H20.7394C16.9141 24.4081 13.8025 27.5197 13.8025 31.345C13.8025 31.9496 13.8795 32.5487 14.0335 33.1271C14.0823 33.313 14.2494 33.435 14.4335 33.435L14.4316 33.4313Z" fill="black"/>
<path d="M106.564 33.8349V50.6945C106.872 50.811 107.178 50.933 107.482 51.0607C107.635 51.1227 107.787 51.1884 107.937 51.2541C108.543 51.517 109.142 51.7987 109.738 52.0917C110.036 52.24 110.331 52.3903 110.626 52.5442C111.067 52.7752 111.509 53.0118 111.946 53.256C112.239 53.4175 112.528 53.5827 112.819 53.7498C114.56 54.7489 116.267 55.8155 117.963 56.8483C118.246 57.0192 118.528 57.192 118.81 57.361C119.091 57.53 119.373 57.699 119.655 57.8662C119.798 57.9488 119.937 58.0314 120.077 58.114C120.218 58.1967 120.359 58.2793 120.5 58.36C121.266 58.8408 122.034 59.3234 122.8 59.8079C122.813 59.8154 122.825 59.8229 122.838 59.8304C122.838 59.8304 122.842 59.8323 122.843 59.8342C123.033 59.9544 123.225 60.0764 123.416 60.1985C123.467 60.2323 123.52 60.2642 123.57 60.2961C123.672 60.3619 123.773 60.4257 123.874 60.4895L124.661 60.9928C125.144 61.3008 125.625 61.6125 126.105 61.9224C126.586 62.2341 127.065 62.5477 127.544 62.8613C128.98 63.8078 130.406 64.7674 131.812 65.7495C132.184 66.0086 132.556 66.2715 132.926 66.5326C133.256 66.7673 133.585 67.0039 133.914 67.2405C134.377 67.5767 134.839 67.9147 135.298 68.2565C135.527 68.4273 135.756 68.6001 135.985 68.771C136.054 68.5719 136.122 68.371 136.191 68.172C136.344 67.6311 136.498 67.0884 136.652 66.5457C136.691 66.4067 136.73 66.2697 136.77 66.1326C136.775 66.1157 137.1 66.2753 137.671 66.5682C141.418 68.4856 155.697 76.1473 158.332 77.5651C158.576 77.6966 158.72 77.7736 158.747 77.7886C158.762 77.6365 158.777 77.4862 158.79 77.3341C159.428 70.4742 159.417 62.9026 159.272 56.0427C159.07 50.995 158.655 45.4872 155.166 41.5248C152.739 38.5953 148.959 37.3653 145.369 36.5541C143.587 36.1729 141.793 35.8443 139.992 35.5494C138.206 35.2584 136.413 34.9955 134.62 34.7532C134.608 34.7532 134.595 34.7495 134.582 34.7476L133.741 34.7044L129.972 34.5128L127.688 34.3964L124.143 34.2161L122.261 34.1204L121.277 34.0715L119.608 33.987C115.264 33.7974 110.915 33.7504 106.566 33.833L106.564 33.8349Z" fill="#8EBAE9"/>
<path d="M121.826 84.9533L122.601 85.5918C122.639 85.6218 122.676 85.6538 122.714 85.6838C124.517 87.1617 126.323 88.6339 128.148 90.0818C126.915 89.6442 125.679 89.2086 124.443 88.7748C123.76 88.5344 123.078 88.2922 122.395 88.0518L121.581 87.8471C121.326 87.8828 121.069 87.9204 120.813 87.956C120.791 87.9579 120.77 87.9617 120.75 87.9654C120.622 87.9823 120.494 88.0011 120.367 88.018C120.231 88.0368 120.096 88.0537 119.961 88.0725C115.507 88.6696 111.032 89.1353 106.564 89.6555V72.9668C107.995 73.9264 109.372 74.978 110.742 76.0127C114.5 78.914 118.156 81.9393 121.824 84.9533H121.826Z" fill="#8EBAE9"/>
<path d="M107.413 89.289L108.876 42.3834C109.071 36.6727 109.83 35.377 110.941 33.7939C109.394 33.7939 107.922 33.8052 106.564 33.8315V90.2355L107.413 89.2853V89.289Z" fill="black"/>
<path d="M105.078 0.414475H23.5157C22.6932 0.414475 22.0266 1.08112 22.0266 1.90363V100.479H106.565V1.90175C106.565 1.07924 105.898 0.412598 105.076 0.412598L105.078 0.414475Z" fill="white"/>
<path d="M22.028 1.90176V10.0705H106.566V1.90176C106.566 1.07924 105.9 0.412598 105.077 0.412598H23.5153C22.6928 0.412598 22.0261 1.07924 22.0261 1.90176H22.028Z" fill="#8EBAE9"/>
<path d="M97.621 5.65586H100.825C101.054 5.65586 101.238 5.46995 101.238 5.24272C101.238 5.0155 101.052 4.82959 100.825 4.82959H97.621C97.3919 4.82959 97.2079 5.0155 97.2079 5.24272C97.2079 5.46995 97.3938 5.65586 97.621 5.65586Z" fill="white"/>
<path d="M90.2509 5.65586H93.4545C93.6836 5.65586 93.8677 5.46995 93.8677 5.24272C93.8677 5.0155 93.6818 4.82959 93.4545 4.82959H90.2509C90.0218 4.82959 89.8377 5.0155 89.8377 5.24272C89.8377 5.46995 90.0237 5.65586 90.2509 5.65586Z" fill="white"/>
<path d="M82.8825 5.65586H86.0861C86.3152 5.65586 86.4993 5.46995 86.4993 5.24272C86.4993 5.0155 86.3134 4.82959 86.0861 4.82959H82.8825C82.6534 4.82959 82.4693 5.0155 82.4693 5.24272C82.4693 5.46995 82.6553 5.65586 82.8825 5.65586Z" fill="white"/>
<path d="M89.2941 52.8447C90.1185 53.4719 91.1946 53.5733 92.1898 53.733C92.8133 53.8118 93.4367 53.8851 94.0602 53.9508C95.5456 54.1123 97.0498 54.0409 98.5145 53.7423C99.2319 53.5959 99.9492 53.4663 100.667 53.3386C101.483 53.1996 102.306 53.0832 103.121 52.9367C103.256 52.9086 103.378 52.8654 103.517 52.9311C103.85 53.0682 103.835 53.5771 103.497 53.6954C101.966 53.9959 100.404 54.2043 98.8638 54.5066C98.8338 54.5123 98.8056 54.5179 98.7756 54.5235C98.7324 54.5311 98.6911 54.5404 98.6479 54.5498C98.6047 54.5574 98.5634 54.5667 98.522 54.5761C98.4789 54.5836 98.4375 54.593 98.3962 54.6024C98.015 54.6832 97.6376 54.7696 97.262 54.8672C97.2207 54.8785 97.1775 54.8879 97.1362 54.901C96.9747 54.9442 96.8113 54.9893 96.6498 55.0362C96.231 55.1583 95.8179 55.2954 95.4085 55.4493C94.1466 56.0165 93.5851 56.9798 93.8029 57.9338C94.0114 58.8483 95.001 59.3628 95.8893 59.0549C96.862 58.7187 97.9343 58.5366 98.7624 58.3995C100.319 58.1385 101.885 57.9676 103.455 57.8249C103.996 57.7685 104.079 58.5835 103.549 58.6474C101.467 58.8502 99.3821 59.0605 97.3352 59.5168C96.785 59.6333 96.263 59.7797 95.8048 59.9656C95.7616 59.9825 95.7202 59.9994 95.6789 60.0182C95.6583 60.0257 95.6395 60.0351 95.617 60.0445C95.5963 60.0539 95.5775 60.0633 95.5569 60.0727C95.5362 60.0802 95.5174 60.0896 95.4987 60.099C95.4592 60.1177 95.4198 60.1365 95.3822 60.1572C95.3447 60.1778 95.3071 60.1966 95.2696 60.2173C95.1963 60.2567 95.1268 60.2999 95.0592 60.3431C95.0442 60.3544 95.0292 60.3638 95.016 60.3731C94.9804 60.3976 94.9466 60.4201 94.9128 60.4445C94.0827 61.0548 93.8198 61.9449 94.7062 63.2519V63.2557C94.9391 63.5937 95.3766 63.7289 95.754 63.573C97.3747 62.9045 99.2394 62.8538 100.958 62.6172C101.183 62.6228 101.542 62.5797 101.94 62.5421C102.744 62.4595 103.699 62.3768 103.989 62.666C104.218 62.9552 103.921 63.4078 103.564 63.3158C101.773 63.389 97.8122 63.5054 95.831 64.4519L95.8217 64.4575C94.9372 64.8932 94.6874 66.0612 95.3503 66.7917C96.5465 68.1081 99.8009 68.6133 101.106 69.2123C103.669 70.1006 105.996 71.524 108.193 73.0939C112.924 76.5116 117.402 80.2524 121.905 83.9631C122.165 84.1753 122.424 84.3893 122.683 84.6034C122.771 84.6748 122.859 84.7461 122.946 84.8194C123.212 85.0372 123.479 85.2569 123.746 85.4748C125.135 86.6128 126.533 87.7432 127.943 88.8531C128.752 89.4859 129.657 90.207 130.626 90.9638C130.66 90.9901 130.696 91.0164 130.73 91.0446C130.81 91.1065 130.891 91.1704 130.974 91.2342C131.259 91.4558 131.55 91.6793 131.843 91.9065C131.963 91.9966 132.084 92.0905 132.206 92.1825C132.298 92.252 132.39 92.3215 132.482 92.391C132.568 92.4567 132.654 92.5206 132.741 92.5863C132.745 92.5882 132.748 92.5919 132.752 92.5938C136.523 95.4144 140.891 98.2443 144.566 98.6969C144.992 98.7101 145.416 98.6894 145.833 98.6387C145.848 98.6368 145.863 98.6349 145.88 98.6331C145.92 98.6274 145.957 98.6218 145.997 98.618C146.151 98.5955 146.303 98.5711 146.455 98.5392C146.485 98.5335 146.517 98.5279 146.547 98.5223C146.577 98.5148 146.609 98.5091 146.639 98.5016C149.64 97.8519 152.31 95.6886 154.073 93.2436C156.851 89.2437 157.467 84.2485 158.102 79.535C158.156 79.0205 158.21 78.5078 158.261 77.9933L158.302 77.6853C158.308 77.6459 158.319 77.6064 158.333 77.5726C155.698 76.1548 141.418 68.4912 137.672 66.5758L137.509 67.0039C137.482 67.079 137.452 67.1523 137.426 67.2255L137.42 67.2405C136.974 68.4555 137.355 69.817 138.367 70.6245C139.107 71.2141 139.839 71.8151 140.56 72.4254C143.255 74.8741 145.91 77.706 146.654 81.3904C146.645 81.8673 147.298 83.088 146.569 83.2532C146.284 83.3114 146.044 83.0448 146.07 82.7687C145.999 82.2636 145.892 81.7603 145.775 81.2627C145.349 79.5313 144.513 77.9482 143.398 76.5642C141.417 74.108 138.97 72.0874 136.468 70.1738C136.326 70.063 136.181 69.9541 136.036 69.8452C135.95 69.7794 135.864 69.7156 135.775 69.6499C132.162 66.9532 128.382 64.3787 124.583 61.9186C124.452 61.8341 124.32 61.7477 124.189 61.6651C124.078 61.5938 123.971 61.5243 123.862 61.4529C123.84 61.4379 123.817 61.4248 123.796 61.4097C123.725 61.3647 123.656 61.3196 123.584 61.2745C123.535 61.2426 123.487 61.2126 123.438 61.1806C123.182 61.0173 122.925 60.8558 122.67 60.6943C119.477 58.6793 116.279 56.7056 112.987 54.839C110.899 53.6635 108.785 52.4917 106.563 51.5865C106.486 51.5565 106.411 51.5246 106.334 51.4945C106.278 51.472 106.223 51.4513 106.167 51.4288C106.024 51.3725 105.881 51.318 105.737 51.2635C104.978 50.9819 104.208 50.7359 103.421 50.5312C101.634 50.0448 99.7107 49.9434 97.8592 49.9265C95.4705 49.9265 93.0668 49.9002 90.6894 50.1669C89.097 50.2739 87.5947 51.5659 89.2941 52.8466V52.8447Z" fill="white"/>
<path d="M126.676 41.6921C128.051 42.0545 129.307 42.9409 130.319 43.9399C131.322 44.9464 132.276 46.0187 133.11 47.1755C133.422 47.6074 134.06 47.598 134.366 47.1642C136.59 44.0113 136.548 39.4668 134.426 36.2237C134.364 36.1336 134.301 36.0453 134.237 35.957C134.047 36.4979 133.807 37.0237 133.502 37.5194C132.109 39.7766 129.664 41.4386 126.999 41.6695C126.892 41.6808 126.783 41.6883 126.678 41.6921H126.676Z" fill="white"/>
<path d="M117.486 44.0956C117.486 44.0956 117.486 44.0994 117.488 44.1013C117.591 44.5613 118.138 44.7566 118.515 44.475C120.239 43.1849 122.181 42.137 124.274 41.6431C124.588 41.568 124.9 41.5267 125.208 41.5173C123.274 40.9727 121.809 39.2432 120.973 37.3822C120.532 36.4846 120.305 35.5137 120.231 34.5278C117.497 36.8282 116.725 40.7061 117.484 44.0956H117.486Z" fill="white"/>
<path d="M120.469 30.3321C120.481 30.3734 120.494 30.4166 120.505 30.4579C120.522 30.5049 120.543 30.55 120.56 30.5969C120.58 30.6439 120.601 30.6908 120.622 30.7359C120.648 30.7941 120.674 30.8523 120.702 30.9086C120.715 30.9368 120.729 30.965 120.742 30.9913C120.781 31.0758 120.824 31.1603 120.868 31.241C120.884 31.2748 120.901 31.3067 120.92 31.3387C120.963 31.4157 121.005 31.4908 121.05 31.564C121.068 31.5959 121.087 31.6279 121.108 31.6598C121.129 31.6955 121.151 31.7293 121.174 31.7631C121.566 32.3809 122.021 32.8954 122.526 33.3029C122.528 33.3048 122.531 33.3086 122.533 33.3104C122.563 33.3349 122.591 33.3574 122.621 33.3818C122.653 33.4062 122.687 33.4306 122.719 33.4569C122.719 33.4569 122.719 33.4569 122.721 33.4569C122.747 33.4757 122.774 33.4964 122.802 33.5151C122.813 33.5226 122.826 33.532 122.837 33.5395C122.856 33.5527 122.877 33.5658 122.896 33.579C122.984 33.6391 123.076 33.6992 123.166 33.7536C123.189 33.7668 123.211 33.7799 123.234 33.7931C123.297 33.8306 123.361 33.8644 123.425 33.8982C123.448 33.9114 123.47 33.9226 123.493 33.9339C123.519 33.9489 123.545 33.9602 123.572 33.9733C123.592 33.9846 123.615 33.994 123.636 34.0034C123.658 34.0146 123.679 34.024 123.701 34.0334C123.709 34.0391 123.718 34.0409 123.726 34.0447L123.814 34.0841C123.814 34.0841 123.814 34.0841 123.816 34.0841C123.848 34.0991 123.882 34.1123 123.913 34.1254C123.913 34.1254 123.915 34.1254 123.917 34.1254C123.949 34.1386 123.981 34.1517 124.011 34.163C124.017 34.1649 124.022 34.1686 124.026 34.1686C124.056 34.1799 124.086 34.193 124.116 34.2024C124.148 34.2137 124.178 34.225 124.21 34.2362C125.151 34.5592 126.184 34.6325 127.26 34.4672C127.305 34.4597 127.35 34.4522 127.393 34.4447C127.433 34.439 127.472 34.4315 127.513 34.424C127.572 34.4128 127.628 34.4015 127.684 34.3902C127.714 34.3846 127.742 34.379 127.772 34.3714C127.793 34.3658 127.814 34.3639 127.834 34.3583C127.872 34.3508 127.906 34.3414 127.943 34.332C127.985 34.3226 128.028 34.3113 128.069 34.302C128.114 34.2907 128.159 34.2775 128.204 34.2644C128.304 34.2381 128.403 34.2081 128.503 34.1761C128.541 34.1649 128.574 34.1536 128.612 34.1423C128.642 34.133 128.67 34.1236 128.7 34.1142C128.73 34.1029 128.76 34.0935 128.79 34.0841C128.907 34.0447 129.023 33.9996 129.141 33.9546C129.164 33.9452 129.187 33.9377 129.209 33.9283C129.239 33.917 129.271 33.9039 129.301 33.8907C129.344 33.8738 129.386 33.855 129.427 33.8381C129.431 33.8381 129.434 33.8344 129.438 33.8344C129.573 33.778 129.71 33.7161 129.846 33.6522C130.052 33.5621 130.3 33.6672 130.388 33.8719C130.396 33.8926 130.403 33.9114 130.407 33.932C130.411 33.9414 130.413 33.9508 130.415 33.9602C130.494 34.3395 130.02 34.4879 129.722 34.6024C129.688 34.6174 129.656 34.6287 129.622 34.6437C129.596 34.655 129.57 34.6644 129.543 34.6738C128.533 35.0719 127.466 35.3385 126.379 35.3855C124.884 35.4888 123.442 34.9874 122.255 34.1142C122.248 34.1085 122.225 34.0898 122.191 34.0578C121.743 33.6541 121.023 33.994 121.059 34.5949C121.059 34.6062 121.059 34.6137 121.061 34.6212C121.324 37.07 123.001 40.1215 125.558 40.7375C125.583 40.7431 125.607 40.7487 125.632 40.7544C125.649 40.7581 125.664 40.7619 125.681 40.7637C125.692 40.7675 125.705 40.7694 125.718 40.7713C125.733 40.775 125.748 40.7769 125.765 40.7788C125.812 40.7882 125.857 40.7957 125.904 40.8032C125.923 40.8069 125.942 40.8088 125.96 40.8107C125.966 40.8107 125.972 40.8126 125.977 40.8126C126.02 40.8182 126.062 40.8238 126.105 40.8276C126.122 40.8295 126.139 40.8313 126.154 40.8332C126.178 40.8351 126.201 40.8389 126.223 40.8389C126.253 40.8407 126.281 40.8426 126.311 40.8445C126.332 40.8445 126.355 40.8445 126.377 40.8445C129.273 40.8689 131.996 38.8859 133.2 36.3038C133.365 35.9282 133.5 35.5432 133.613 35.1545C133.618 35.1414 133.62 35.1282 133.624 35.1151C133.633 35.0813 133.645 35.0494 133.652 35.0156C133.662 34.9818 133.671 34.9498 133.678 34.916C133.684 34.8935 133.69 34.871 133.695 34.8484C133.707 34.8052 133.72 34.7602 133.729 34.7151C133.737 34.6869 133.744 34.6569 133.75 34.6268C133.757 34.6024 133.763 34.5761 133.769 34.5498C133.776 34.516 133.784 34.4841 133.791 34.4503C133.799 34.4221 133.806 34.394 133.812 34.3639C133.815 34.347 133.819 34.3282 133.823 34.3113C133.832 34.2644 133.842 34.2193 133.851 34.1743C133.862 34.1179 133.874 34.0635 133.885 34.009C133.889 33.9884 133.892 33.9696 133.896 33.9508C133.904 33.9057 133.913 33.8607 133.921 33.8137C133.936 33.733 133.951 33.6522 133.964 33.5733C133.983 33.4625 134.001 33.3536 134.016 33.2428C134.026 33.1846 134.035 33.1227 134.043 33.0644C134.052 33.0025 134.061 32.9386 134.069 32.8785C134.071 32.8635 134.073 32.8522 134.075 32.8372C134.08 32.8034 134.084 32.7715 134.09 32.7377C134.097 32.6776 134.107 32.6156 134.114 32.5537C134.221 31.7387 134.308 30.918 134.435 30.1124C134.373 30.0993 134.315 30.0842 134.264 30.0673C133.947 30.672 133.569 31.2429 133.115 31.7518C132.754 32.1555 132.139 31.6222 132.488 31.2128C132.604 31.0908 132.713 30.9593 132.816 30.826C133.429 29.9885 133.891 29.0458 134.21 28.0599C134.279 27.8439 134.512 27.72 134.728 27.7876C134.942 27.8552 135.068 28.0918 134.999 28.3059C134.888 28.6345 134.768 28.9613 134.63 29.2843C135.538 29.4514 136.49 29.0533 137.286 28.642C138.324 28.0449 139.201 27.1116 139.47 25.9172C139.596 25.2881 139.577 24.5896 139.248 24.0224C138.781 23.2413 137.791 22.6929 136.901 23.0891C136.676 23.1905 136.456 23.3089 136.259 23.4572C135.939 23.675 135.569 24.2722 135.169 23.8572C135.169 23.8572 135.169 23.8553 135.168 23.8534C135.049 23.784 134.963 23.6581 134.969 23.4966C135.194 22.6215 134.995 21.6713 134.561 20.8883C133.652 19.2789 132.415 17.6696 132.539 15.7185C131.008 15.7786 129.22 14.8866 128.261 13.7129C127.682 14.28 126.886 14.5917 126.099 14.742C124.914 14.9504 123.617 14.926 122.529 14.3551C122.479 14.3251 122.421 14.295 122.357 14.2612C122.312 14.4096 122.267 14.5598 122.221 14.71C121.938 15.6471 121.664 16.5879 121.418 17.5363C121.837 17.3804 122.282 17.294 122.725 17.2827C123.144 17.2733 123.979 17.2809 123.771 17.9175C123.624 18.2517 123.296 18.1503 123.012 18.1165C122.37 18.0752 121.705 18.2367 121.159 18.5841C121.033 19.1193 120.918 19.6545 120.819 20.1953C120.548 21.7746 120.244 23.4009 120.103 25.029C120.096 25.091 120.092 25.1548 120.086 25.2168C120.084 25.2468 120.081 25.275 120.079 25.305C120.075 25.3482 120.073 25.3914 120.069 25.4346C120.068 25.474 120.064 25.5154 120.062 25.5567C120.062 25.5679 120.062 25.5811 120.06 25.5942C120.056 25.6524 120.053 25.7125 120.049 25.7726C120.045 25.8459 120.041 25.9191 120.037 25.9923C119.972 27.4533 120.068 28.9087 120.46 30.3246L120.469 30.3321Z" fill="white"/>
<path d="M135.56 27.2492C136.049 26.4962 136.61 25.7882 137.299 25.208C137.568 24.9826 137.842 24.7629 138.129 24.562C138.558 24.2315 138.082 23.5855 137.637 23.8972C136.548 24.6596 135.585 25.6455 134.888 26.7703C134.687 27.084 134.963 27.4088 135.251 27.4088C135.361 27.4088 135.472 27.3619 135.56 27.2492Z" fill="black"/>
<path d="M138.1 26.6943C138.188 26.5178 138.083 26.2474 137.921 26.1742C137.557 25.9901 137.189 25.8267 136.806 25.6859C136.52 25.5807 136.231 25.4793 135.944 25.3779C135.745 25.5958 135.557 25.8211 135.379 26.0558C135.705 26.1723 136.032 26.2849 136.357 26.4033C136.718 26.5328 137.071 26.6774 137.416 26.8446C137.503 26.9122 137.61 26.946 137.711 26.946C137.873 26.946 138.027 26.8633 138.098 26.6943H138.1Z" fill="black"/>
<path d="M131.695 19.0738C131.812 18.6476 131.402 18.5368 131.111 18.4372C130.696 18.272 130.292 18.0767 129.9 17.8607C129.41 17.5772 128.935 17.2692 128.477 16.9368C128.323 16.7922 128.071 16.7753 127.909 16.9218C127.697 17.0983 127.74 17.457 127.975 17.5922C128.49 17.9715 129.029 18.3189 129.586 18.6307C130.093 18.9105 130.627 19.1583 131.175 19.3405C131.215 19.3536 131.258 19.3612 131.297 19.3612C131.47 19.3612 131.639 19.2485 131.695 19.0738Z" fill="black"/>
<path d="M124.977 25.5053C125.101 24.9307 124.316 24.9626 123.995 24.6753C123.597 24.4274 123.144 23.7927 123.55 23.372C124.061 22.8857 124.568 22.3542 124.849 21.697C125.079 21.1956 125.589 18.9233 124.483 19.3158C124.222 19.4623 124.286 19.7459 124.329 19.9862C124.393 21.004 123.903 21.9449 123.152 22.6077C122.898 22.835 122.664 23.1091 122.592 23.4509C122.453 24.1044 122.819 24.7842 123.31 25.2011C123.572 25.3832 124.155 25.8039 124.57 25.8039C124.752 25.8039 124.902 25.7231 124.979 25.5072L124.977 25.5053Z" fill="black"/>
<path d="M130.984 26.794C131.021 26.5536 130.828 26.3414 130.591 26.3207C130.208 26.24 129.827 26.1311 129.461 26.0053C129.243 25.9283 129.029 25.8419 128.822 25.7386C128.619 25.6466 128.529 25.5226 128.315 25.5452C127.968 25.5752 127.819 26.0729 128.109 26.2794C128.847 26.7451 129.682 26.9686 130.516 27.1489C130.539 27.1526 130.559 27.1545 130.58 27.1545C130.775 27.1545 130.955 26.9874 130.982 26.794H130.984Z" fill="black"/>
<path d="M126.592 29.347C127.407 29.1818 128.197 28.7743 128.806 28.2072C129.166 27.8485 129.454 27.4203 129.69 26.9715C129.854 26.7161 129.902 26.3556 129.576 26.211C129.281 26.087 129.046 26.3105 128.969 26.5696C128.791 26.9133 128.575 27.2382 128.314 27.5255C127.833 28.0288 127.161 28.363 126.49 28.5264C125.972 28.6053 126.047 29.3508 126.539 29.3508C126.556 29.3508 126.573 29.3508 126.592 29.3489V29.347Z" fill="black"/>
<path d="M122.198 22.0282C122.277 22.0132 122.349 21.9794 122.413 21.9324C122.681 21.754 122.799 21.4028 122.869 21.1061C122.94 20.8038 122.951 20.4808 122.899 20.1747C122.856 19.9231 122.751 19.6771 122.529 19.5325C122.326 19.401 122.059 19.4367 121.872 19.5775C121.778 19.6489 121.703 19.7447 121.643 19.8442C121.515 20.0564 121.445 20.3062 121.41 20.5484C121.382 20.7324 121.374 20.9184 121.383 21.1061C121.395 21.2996 121.438 21.4911 121.521 21.6639C121.566 21.7596 121.633 21.8479 121.718 21.9155C121.823 22 121.947 22.0394 122.076 22.0394C122.116 22.0394 122.157 22.0357 122.198 22.0282Z" fill="black"/>
<path d="M128.903 22.677C129.031 22.5906 129.121 22.4497 129.185 22.3108C129.185 22.3108 129.185 22.3089 129.185 22.307C129.185 22.307 129.185 22.3051 129.185 22.3033C129.187 22.2976 129.191 22.2901 129.193 22.2826C129.309 22.0065 129.352 21.6967 129.345 21.4C129.337 21.092 129.288 20.7653 129.131 20.493C129.059 20.369 128.96 20.2507 128.83 20.1831C128.639 20.0836 128.428 20.0855 128.239 20.1888C128.024 20.3071 127.908 20.5399 127.833 20.7596C127.763 20.9643 127.739 21.1859 127.733 21.4C127.728 21.6028 127.75 21.8056 127.795 22.0028C127.837 22.1849 127.908 22.3652 128.023 22.5155C128.128 22.6544 128.284 22.7615 128.458 22.7859C128.485 22.7896 128.511 22.7915 128.535 22.7915C128.667 22.7915 128.787 22.7446 128.898 22.6713L128.903 22.677Z" fill="black"/>
<path d="M89.4881 49.5881C90.874 49.158 92.3651 49.2144 93.8035 49.1355C94.8138 49.1092 95.826 49.0923 96.8382 49.0923C97.5649 49.0923 98.2898 49.0998 99.0146 49.1224C100.292 49.1486 101.535 49.3026 102.75 49.558C103.762 49.7684 104.753 50.0519 105.73 50.3881C105.736 50.3881 105.737 50.3899 105.737 50.3899L106.566 50.6923C106.874 50.8087 107.18 50.9308 107.484 51.0585C107.636 51.1204 107.788 51.1862 107.938 51.2519C108.545 51.5148 109.144 51.7946 109.739 52.0894C110.038 52.2378 110.333 52.388 110.627 52.542C111.069 52.773 111.51 53.0096 111.948 53.2537C112.241 53.4152 112.53 53.5804 112.821 53.7476C114.562 54.7466 116.269 55.8132 117.964 56.8461C118.248 57.017 118.53 57.1897 118.811 57.3587C119.093 57.5278 119.375 57.6968 119.656 57.8639C119.799 57.9465 119.938 58.0291 120.079 58.1118L120.501 58.3559C121.267 58.8366 122.036 59.3192 122.802 59.8037C122.815 59.8113 122.826 59.8206 122.839 59.8282C122.86 59.8394 122.882 59.8526 122.916 59.8676C123.048 59.9258 123.166 60.0084 123.281 60.0967C123.324 60.1305 123.371 60.1624 123.418 60.1943C123.468 60.2281 123.521 60.2601 123.572 60.292C123.673 60.3558 123.774 60.4197 123.876 60.4854C124.026 58.6939 124.174 56.9024 124.325 55.1128C124.524 52.7467 124.721 50.3805 124.92 48.0163C125.068 46.2342 125.215 44.4464 125.367 42.6643C125.38 42.5066 125.25 42.3751 125.095 42.3827C125.076 42.3827 125.057 42.3845 125.046 42.3845C123.083 42.5348 121.243 43.6897 119.6 44.7037C119.254 44.9422 118.918 45.192 118.59 45.4549C118.578 45.4642 118.56 45.4793 118.541 45.4943C117.968 45.975 117.087 45.7159 116.871 45.0004C116.871 44.9967 116.869 44.9929 116.868 44.9891C115.754 41.1752 116.522 36.6063 119.607 33.9867C119.607 33.9867 119.613 33.981 119.617 33.9791C119.983 33.7275 120.208 33.3125 120.242 32.8674C120.255 32.7059 120.27 32.5426 120.289 32.3829C120.3 32.2515 120.312 32.1182 120.323 31.9848C119.979 31.4121 119.718 30.7943 119.555 30.152C119.185 28.6046 119.153 27.0141 119.264 25.4292C117.427 23.8837 116.374 21.3128 117.718 19.112C116.98 18.7345 116.642 17.9383 116.543 17.1515C116.205 15.2097 117.256 13.129 118.896 12.0624C119.198 11.8652 119.333 11.4953 119.222 11.1516C118.618 9.25121 120.083 7.15175 121.814 6.33111C123.491 5.54052 125.688 5.34335 127.344 6.01938C127.656 6.15459 127.958 6.31233 128.246 6.49073C129.365 6.12267 130.642 6.08135 131.739 6.41562C133.16 6.90011 134.58 7.98552 134.984 9.48783C137.325 8.85498 143.932 12.222 141.828 18.235C143.201 19.0763 144.17 20.6105 144.163 22.2424C144.114 23.5982 143.605 25.1944 142.287 25.8066C142.822 27.7878 141.95 30.3924 139.706 30.7398C139.667 32.2346 138.093 33.7632 136.593 34.1951C135.791 34.4054 135.117 34.5876 134.681 34.7153C134.657 34.7228 134.634 34.7359 134.614 34.7528C134.584 34.7772 134.561 34.8129 134.552 34.8542V34.8561C134.538 34.9124 134.552 34.9707 134.585 35.0176C134.655 35.1059 134.764 35.2486 134.779 35.2674C138.471 41.5132 136.424 45.8455 134.822 47.9168C134.225 48.6886 133.192 48.5402 132.589 47.7722C131.201 46.0051 128.557 43.2277 126.529 42.5122C126.529 42.5122 126.529 42.5122 126.527 42.5122C126.37 42.4559 126.201 42.5686 126.186 42.7376C126.094 43.838 125.782 47.575 125.615 49.5562C125.416 51.926 125.219 54.294 125.019 56.6639C124.899 58.1061 124.779 59.5484 124.657 60.9924C125.14 61.3004 125.62 61.6121 126.101 61.922C126.582 62.2337 127.061 62.5473 127.54 62.8609C128.974 63.8055 130.401 64.7651 131.808 65.7491C132.18 66.0083 132.552 66.2712 132.922 66.5322C133.252 66.7669 133.581 67.0035 133.909 67.2401C134.373 67.5763 134.835 67.9143 135.293 68.2561C135.522 68.427 135.752 68.5979 135.981 68.7706C136.05 68.5716 136.118 68.3725 136.187 68.1716C136.339 67.6307 136.493 67.088 136.647 66.5453C136.687 66.4064 136.726 66.2693 136.766 66.1322C136.803 65.997 136.841 65.8618 136.88 65.7285C138.431 60.2695 140.009 54.818 141.492 49.3402C141.466 48.8632 142.195 48.7581 142.307 49.2181C141.258 53.4997 140.05 57.7569 138.82 62.0103C139.119 61.4582 139.436 60.9154 139.774 60.384C141.119 58.1287 143.107 56.3353 145.426 55.1203C145.89 54.8461 146.305 55.5748 145.843 55.8358C145.056 56.2733 144.287 56.7466 143.571 57.2968C140.756 59.5803 139.107 62.8553 137.802 66.2129L137.667 66.5697L137.504 66.9979C137.477 67.073 137.447 67.1463 137.421 67.2195L137.415 67.2345C136.968 68.4495 137.35 69.811 138.362 70.6185C139.102 71.2081 139.834 71.809 140.555 72.4193C143.25 74.8681 145.905 77.6999 146.649 81.3843C146.64 81.8613 147.293 83.0819 146.564 83.2472C146.279 83.3054 146.039 83.0387 146.065 82.7627C145.994 82.2575 145.886 81.7543 145.77 81.2566C145.344 79.5252 144.508 77.9422 143.393 76.5582C141.412 74.1019 138.965 72.0813 136.463 70.1678C136.321 70.057 136.176 69.9481 136.031 69.8391C135.945 69.7734 135.859 69.7096 135.77 69.6438C132.157 66.9472 128.377 64.3726 124.578 61.9126C124.447 61.8281 124.315 61.7417 124.184 61.6591C124.073 61.5877 123.966 61.5182 123.857 61.4469C123.835 61.4319 123.812 61.4187 123.791 61.4037C123.72 61.3586 123.651 61.3136 123.579 61.2685C123.53 61.2366 123.482 61.2065 123.433 61.1746C123.177 61.0112 122.92 60.8497 122.665 60.6882C119.472 58.6733 116.274 56.6996 112.982 54.833C110.894 53.6574 108.78 52.4856 106.558 51.5805C106.481 51.5505 106.406 51.5185 106.329 51.4885C106.273 51.466 106.218 51.4453 106.162 51.4228C106.019 51.3664 105.876 51.312 105.732 51.2575C104.973 50.9758 104.203 50.7298 103.416 50.5251C101.629 50.0388 99.7057 49.9374 97.8541 49.9205C95.4654 49.9205 93.0617 49.8942 90.6843 50.1608C89.0919 50.2679 87.5896 51.5598 89.2891 52.8406C90.1135 53.4678 91.1895 53.5692 92.1848 53.7288C92.8082 53.8077 93.4317 53.8809 94.0551 53.9466C95.5405 54.1081 97.0447 54.0368 98.5095 53.7382C99.2268 53.5917 99.9442 53.4621 100.662 53.3344C101.478 53.1955 102.301 53.0791 103.116 52.9326C103.251 52.9044 103.373 52.8612 103.512 52.9269C103.845 53.064 103.83 53.5729 103.491 53.6912C101.961 53.9917 100.399 54.2001 98.8588 54.5025C98.8287 54.5081 98.8005 54.5138 98.7705 54.5194C98.7273 54.5269 98.686 54.5363 98.6428 54.5457C98.5996 54.5532 98.5583 54.5626 98.517 54.572C98.4738 54.5795 98.4325 54.5889 98.3912 54.5983C98.01 54.679 97.6325 54.7654 97.2569 54.863C97.2156 54.8743 97.1724 54.8837 97.1311 54.8968C96.9696 54.94 96.8062 54.9851 96.6447 55.032C96.226 55.1541 95.8128 55.2912 95.4035 55.4452C94.1415 56.0123 93.58 56.9757 93.7979 57.9296C94.0063 58.8441 94.996 59.3587 95.8842 59.0507C96.8569 58.7146 97.9292 58.5324 98.7574 58.3953C100.314 58.1343 101.88 57.9634 103.45 57.8207C103.991 57.7644 104.074 58.5794 103.544 58.6432C101.462 58.846 99.3771 59.0563 97.3302 59.5127C96.7799 59.6291 96.2579 59.7756 95.7997 59.9615C95.7565 59.9784 95.7152 59.9953 95.6739 60.0141C95.6532 60.0216 95.6344 60.031 95.6119 60.0404C95.5912 60.0497 95.5725 60.0591 95.5518 60.0685C95.5312 60.076 95.5124 60.0854 95.4936 60.0948C95.4542 60.1136 95.4147 60.1324 95.3772 60.153C95.3396 60.1737 95.3021 60.1925 95.2645 60.2131C95.1913 60.2526 95.1218 60.2957 95.0542 60.3389C95.0391 60.3502 95.0241 60.3596 95.011 60.369C94.9753 60.3934 94.9415 60.4159 94.9077 60.4403C94.0777 61.0507 93.8148 61.9408 94.7011 63.2478V63.2515C94.934 63.5896 95.3715 63.7248 95.749 63.5689C97.3696 62.9004 99.2343 62.8497 100.953 62.6131C101.178 62.6187 101.537 62.5755 101.935 62.5379C102.738 62.4553 103.694 62.3727 103.983 62.6619C104.213 62.9511 103.916 63.4036 103.559 63.3116C101.768 63.3849 97.8071 63.5013 95.826 64.4477L95.8166 64.4534C94.9321 64.889 94.6824 66.0571 95.3452 66.7876C96.5415 68.104 99.7958 68.6091 101.101 69.2082C103.664 70.0964 105.991 71.5198 108.188 73.0897C112.918 76.5075 117.397 80.2482 121.9 83.9589C122.159 84.1711 122.419 84.3852 122.678 84.5993C122.766 84.6706 122.854 84.742 122.941 84.8152C123.207 85.0331 123.474 85.2528 123.741 85.4706C125.13 86.6086 126.527 87.7391 127.938 88.8489C128.747 89.4818 129.652 90.2029 130.621 90.9596C130.655 90.9859 130.691 91.0122 130.724 91.0404C130.805 91.1024 130.886 91.1662 130.969 91.2301C131.254 91.4517 131.545 91.6751 131.838 91.9023C131.958 91.9925 132.078 92.0864 132.201 92.1784C132.293 92.2479 132.385 92.3174 132.477 92.3868C132.563 92.4526 132.649 92.5164 132.736 92.5821C132.739 92.584 132.743 92.5878 132.747 92.5896C136.518 95.4102 140.886 98.2402 144.561 98.6928C144.987 98.7059 145.411 98.6852 145.828 98.6345C145.843 98.6327 145.858 98.6308 145.875 98.6289C145.915 98.6233 145.952 98.6176 145.992 98.6139C146.146 98.5914 146.298 98.5669 146.45 98.535C146.48 98.5294 146.512 98.5238 146.542 98.5181C146.572 98.5106 146.604 98.505 146.634 98.4975C149.635 97.8477 152.305 95.6844 154.068 93.2394C156.846 89.2395 157.462 84.2444 158.096 79.5309C158.151 79.0163 158.205 78.5037 158.256 77.9891L158.297 77.6812C158.303 77.6417 158.314 77.6023 158.327 77.5685C158.406 77.3938 158.598 77.2962 158.786 77.3375C158.823 77.345 158.861 77.3582 158.898 77.3769C159.028 77.4483 159.109 77.5854 159.109 77.7337C159.109 77.7488 159.109 77.7638 159.107 77.7807C159.086 77.9628 159.062 78.1807 159.05 78.2727C159.045 78.3196 159.041 78.3666 159.035 78.4135C158.465 83.5063 157.858 88.8001 155.09 93.1981C153.19 96.1501 150.166 98.5444 146.713 99.335C146.75 99.7162 146.784 100.097 146.82 100.479H106.56V89.6564C111.027 89.1343 115.501 88.6705 119.957 88.0715C120.092 88.0527 120.227 88.0339 120.362 88.017C120.488 88.0001 120.616 87.9813 120.744 87.9644C120.764 87.9625 120.787 87.9588 120.809 87.9569C121.067 87.9212 121.322 87.8856 121.577 87.848C121.577 87.8367 121.579 87.8236 121.581 87.8123C121.581 87.7973 121.583 87.786 121.585 87.7691C121.664 86.8321 121.743 85.8931 121.82 84.9561C120.901 84.2012 119.987 83.4481 119.07 82.6951C116.777 80.8135 114.477 78.9393 112.143 77.1084C111.675 76.7422 111.208 76.3779 110.738 76.0155C110.395 75.7563 110.053 75.4972 109.709 75.238C108.676 74.4606 107.636 73.6907 106.562 72.9696L105.734 72.4287C104.581 71.6982 103.388 71.0372 102.128 70.5002C100.265 69.6776 98.2653 69.2401 96.3818 68.4889C94.765 67.826 93.2101 65.8712 94.5115 64.3482C94.0251 63.8111 93.6364 63.1877 93.4279 62.4929C93.1387 61.3455 93.5124 60.5342 94.2054 59.9483C93.1725 59.062 92.5153 57.7231 93.1613 56.4142C93.5143 55.7475 94.0796 55.233 94.7293 54.8687C93.0035 54.7166 91.2815 54.5307 89.6403 53.9936C87.3305 53.0622 86.9098 50.4819 89.4863 49.59L89.4881 49.5881ZM117.485 44.0953C117.485 44.0953 117.485 44.099 117.487 44.1009C117.591 44.561 118.137 44.7563 118.515 44.4746C120.238 43.1845 122.18 42.1366 124.274 41.6428C124.588 41.5676 124.899 41.5263 125.207 41.5169C123.273 40.9724 121.808 39.2428 120.973 37.3819C120.531 36.4842 120.304 35.5134 120.231 34.5275C117.497 36.8279 116.725 40.7057 117.484 44.0953H117.485ZM130.319 43.9394C131.322 44.946 132.276 46.0182 133.109 47.175C133.421 47.6069 134.06 47.5975 134.366 47.1637C136.589 44.0108 136.548 39.4663 134.426 36.2232C134.364 36.1331 134.3 36.0448 134.236 35.9565C134.046 36.4974 133.806 37.0232 133.502 37.5189C132.108 39.7762 129.663 41.4381 126.999 41.6691C126.892 41.6803 126.783 41.6878 126.678 41.6916C128.052 42.054 129.309 42.9404 130.321 43.9394H130.319ZM125.635 40.762C125.652 40.7658 125.667 40.7696 125.684 40.7714C125.696 40.7752 125.709 40.7771 125.722 40.7789C125.737 40.7827 125.752 40.7846 125.769 40.7865C125.816 40.7958 125.861 40.8034 125.908 40.8109C125.927 40.8146 125.945 40.8165 125.964 40.8184C125.97 40.8184 125.975 40.8203 125.981 40.8203C126.024 40.8259 126.065 40.8315 126.109 40.8353C126.126 40.8372 126.142 40.839 126.157 40.8409C126.182 40.8428 126.204 40.8465 126.227 40.8465C126.257 40.8484 126.285 40.8503 126.315 40.8522C126.336 40.8522 126.358 40.8522 126.381 40.8522C129.277 40.8766 132 38.8935 133.203 36.3115C133.369 35.9359 133.504 35.5509 133.616 35.1622C133.622 35.1491 133.624 35.1359 133.628 35.1228C133.637 35.089 133.648 35.057 133.656 35.0232C133.665 34.9894 133.675 34.9575 133.682 34.9237C133.688 34.9012 133.693 34.8786 133.699 34.8561C133.71 34.8129 133.723 34.7678 133.733 34.7228C133.733 34.7171 133.737 34.7115 133.738 34.704C133.744 34.6815 133.75 34.6589 133.755 34.6345C133.763 34.6101 133.769 34.5838 133.774 34.5575C133.782 34.5237 133.789 34.4918 133.797 34.458C133.804 34.4298 133.812 34.4017 133.817 34.3716C133.821 34.3547 133.825 34.3359 133.829 34.319C133.838 34.2721 133.847 34.227 133.857 34.1819C133.868 34.1256 133.879 34.0712 133.891 34.0167C133.894 33.996 133.898 33.9773 133.902 33.9585C133.909 33.9134 133.919 33.8683 133.926 33.8214C133.941 33.7406 133.956 33.6599 133.969 33.581C133.988 33.4702 134.007 33.3613 134.022 33.2505C134.031 33.1923 134.041 33.1303 134.048 33.0721C134.058 33.0101 134.067 32.9463 134.075 32.8862C134.077 32.8712 134.078 32.8599 134.08 32.8449C134.086 32.8111 134.09 32.7792 134.095 32.7454C134.103 32.6853 134.112 32.6233 134.12 32.5613C134.227 31.7463 134.313 30.9257 134.441 30.1201C134.379 30.107 134.321 30.0919 134.27 30.075C133.953 30.6797 133.575 31.2506 133.121 31.7595C132.76 32.1632 132.144 31.6299 132.493 31.2205C132.61 31.0985 132.719 30.967 132.822 30.8337C133.434 29.9962 133.896 29.0535 134.215 28.0676C134.285 27.8516 134.518 27.7277 134.734 27.7953C134.948 27.8629 135.074 28.0995 135.004 28.3136C134.893 28.6422 134.773 28.969 134.636 29.292C135.543 29.4591 136.495 29.061 137.291 28.6497C138.33 28.0525 139.207 27.1192 139.475 25.9249C139.601 25.2958 139.582 24.5972 139.254 24.0301C138.786 23.2489 137.797 22.7006 136.906 23.0968C136.681 23.1982 136.461 23.3165 136.264 23.4649C135.945 23.6827 135.575 24.2799 135.175 23.8649C135.175 23.8649 135.175 23.863 135.173 23.8611C135.055 23.7916 134.969 23.6658 134.974 23.5043C135.199 22.6292 135 21.679 134.567 20.8959C133.658 19.2866 132.42 17.6773 132.544 15.7261C131.014 15.7862 129.226 14.8942 128.266 13.7206C127.688 14.2877 126.892 14.5994 126.105 14.7496C124.92 14.9581 123.622 14.9337 122.535 14.3628C122.484 14.3328 122.426 14.3027 122.362 14.2689C122.317 14.4173 122.272 14.5675 122.227 14.7177C121.944 15.6548 121.669 16.5956 121.423 17.5439C121.842 17.3881 122.287 17.3017 122.73 17.2904C123.149 17.281 123.985 17.2885 123.776 17.9251C123.63 18.2594 123.301 18.158 123.018 18.1242C122.375 18.0829 121.711 18.2444 121.164 18.5918C121.038 19.127 120.924 19.6622 120.824 20.203C120.554 21.7823 120.25 23.4086 120.109 25.0367C120.101 25.0986 120.098 25.1625 120.092 25.2245C120.09 25.2545 120.086 25.2827 120.084 25.3127C120.081 25.3559 120.079 25.3991 120.075 25.4423C120.073 25.4817 120.069 25.523 120.068 25.5644C120.068 25.5756 120.068 25.5888 120.066 25.6019C120.062 25.6601 120.058 25.7202 120.054 25.7803C120.051 25.8535 120.047 25.9268 120.043 26C119.977 27.461 120.073 28.9164 120.466 30.3323C120.477 30.3736 120.49 30.4168 120.501 30.4581C120.518 30.5051 120.539 30.5501 120.556 30.5971C120.576 30.644 120.597 30.691 120.618 30.736C120.644 30.7943 120.67 30.8525 120.698 30.9088C120.712 30.937 120.725 30.9651 120.738 30.9914C120.777 31.0759 120.821 31.1604 120.864 31.2412C120.881 31.275 120.898 31.3069 120.916 31.3388C120.96 31.4158 121.001 31.4909 121.046 31.5642C121.065 31.5961 121.083 31.628 121.104 31.66C121.125 31.6956 121.147 31.7294 121.17 31.7632C121.562 32.3811 122.017 32.8956 122.522 33.3031C122.524 33.305 122.528 33.3087 122.529 33.3106C122.559 33.335 122.588 33.3576 122.618 33.382C122.65 33.4064 122.683 33.4308 122.715 33.4571C122.715 33.4571 122.715 33.4571 122.717 33.4571C122.744 33.4759 122.77 33.4965 122.798 33.5153C122.809 33.5228 122.822 33.5322 122.834 33.5397C122.852 33.5529 122.873 33.566 122.892 33.5791C122.98 33.6392 123.072 33.6993 123.162 33.7538C123.185 33.7669 123.207 33.7801 123.23 33.7932C123.294 33.8308 123.358 33.8646 123.421 33.8984C123.444 33.9115 123.466 33.9228 123.489 33.9341C123.515 33.9491 123.542 33.9604 123.568 33.9735C123.589 33.9848 123.611 33.9942 123.632 34.0036C123.654 34.0148 123.675 34.0242 123.697 34.0336C123.705 34.0392 123.714 34.0411 123.722 34.0449L123.81 34.0843C123.81 34.0843 123.81 34.0843 123.812 34.0843C123.844 34.0993 123.878 34.1125 123.91 34.1256C123.91 34.1256 123.912 34.1256 123.913 34.1256C123.945 34.1388 123.977 34.1519 124.007 34.1632C124.013 34.1651 124.019 34.1688 124.022 34.1688C124.052 34.1801 124.082 34.1932 124.112 34.2026C124.12 34.2045 124.128 34.2082 124.135 34.2101C124.159 34.2176 124.182 34.227 124.206 34.2345C125.147 34.5575 126.18 34.6308 127.256 34.4655C127.301 34.458 127.346 34.4505 127.389 34.443C127.429 34.4373 127.468 34.4298 127.51 34.4223C127.568 34.411 127.624 34.3998 127.68 34.3885C127.711 34.3829 127.739 34.3772 127.769 34.3697C127.789 34.3641 127.81 34.3622 127.831 34.3566C127.868 34.3491 127.902 34.3397 127.94 34.3303C127.981 34.3209 128.024 34.3096 128.065 34.3003C128.11 34.289 128.156 34.2758 128.201 34.2627C128.3 34.2364 128.4 34.2064 128.499 34.1744C128.537 34.1632 128.571 34.1519 128.608 34.1406C128.638 34.1312 128.666 34.1219 128.696 34.1125C128.726 34.1012 128.756 34.0918 128.787 34.0824C128.903 34.043 129.019 33.9979 129.138 33.9528C129.16 33.9435 129.183 33.9359 129.205 33.9266C129.235 33.9153 129.267 33.9021 129.297 33.889C129.34 33.8721 129.382 33.8533 129.423 33.8364C129.427 33.8364 129.431 33.8327 129.434 33.8327C129.57 33.7763 129.707 33.7144 129.842 33.6505C130.048 33.5604 130.296 33.6655 130.385 33.8702C130.392 33.8909 130.4 33.9097 130.403 33.9303C130.407 33.9397 130.409 33.9491 130.411 33.9585C130.469 34.2439 130.219 34.3979 129.964 34.5049C129.879 34.5425 129.793 34.5725 129.718 34.6007C129.684 34.6157 129.652 34.627 129.618 34.642C129.592 34.6533 129.566 34.6627 129.54 34.6721C128.529 35.0702 127.463 35.3368 126.375 35.3838C124.881 35.4871 123.438 34.9857 122.253 34.1125C122.246 34.1068 122.223 34.0881 122.19 34.0561C121.904 33.7989 121.51 33.8439 121.269 34.0636C121.13 34.1895 121.044 34.3735 121.057 34.5932C121.057 34.6045 121.057 34.612 121.059 34.6195C121.322 37.0683 122.999 40.1198 125.557 40.7358C125.581 40.7414 125.605 40.747 125.63 40.7527L125.635 40.762ZM122.396 88.0527C123.08 88.2931 123.761 88.5334 124.445 88.7757C125.063 88.9935 125.681 89.2113 126.298 89.4292C126.916 89.647 127.532 89.8648 128.148 90.0827C126.325 88.6348 124.516 87.1626 122.715 85.6866C122.678 85.6565 122.64 85.6246 122.603 85.5945C122.533 86.4152 122.466 87.2358 122.396 88.0564V88.0527Z" fill="black"/>
<path d="M123.433 97.9495C123.433 97.9495 123.433 97.942 123.433 97.9382C123.095 97.8462 122.755 97.7523 122.422 97.6452C120.287 96.9523 119.063 95.0143 118.929 92.8304C118.867 91.4839 119.046 90.1412 119.234 88.8117C119.264 88.5939 119.296 88.376 119.326 88.1582C119.042 88.1958 118.759 88.2314 118.475 88.269C118.452 88.4324 118.43 88.5958 118.406 88.7591C117.91 91.8708 117.66 95.574 120.563 97.6096C121.245 98.0997 122.024 98.4283 122.835 98.6311C122.986 98.6762 123.17 98.7382 123.339 98.7626C123.369 98.4922 123.401 98.2218 123.431 97.9513L123.433 97.9495Z" fill="white"/>
<path d="M124.162 92.9029C124.162 92.9029 124.162 92.8973 124.162 92.8935C124.162 92.886 124.162 92.8785 124.164 92.871C124.181 92.7226 124.205 92.5743 124.224 92.4278C124.273 92.0767 124.32 91.7236 124.367 91.3724C124.474 90.5856 124.581 89.8007 124.688 89.0138C124.693 88.965 124.701 88.9181 124.708 88.8711C124.62 88.8392 124.53 88.8091 124.442 88.7772C124.265 88.7152 124.091 88.6533 123.914 88.5913C123.837 89.1566 123.758 89.7218 123.681 90.287C123.586 90.9931 123.488 91.6992 123.392 92.4053C123.375 92.5255 123.356 92.6456 123.343 92.7677C123.33 92.8804 123.349 92.9874 123.415 93.0794C123.478 93.1677 123.574 93.2278 123.681 93.2466C123.704 93.2503 123.724 93.2522 123.747 93.2522C123.942 93.2522 124.134 93.1095 124.16 92.9086L124.162 92.9029Z" fill="white"/>
<path d="M123.05 101.307C123.093 100.931 123.137 100.556 123.18 100.18C123.264 99.4365 123.349 98.6928 123.435 97.9511C123.508 97.3126 123.589 96.6741 123.655 96.0357C123.655 96.0319 123.655 96.03 123.655 96.0263C123.677 95.8009 123.52 95.5906 123.292 95.5643C123.071 95.538 122.855 95.7014 122.832 95.9249C122.832 95.9249 122.832 95.9249 122.832 95.9267C122.832 95.9324 122.832 95.938 122.832 95.9436C122.763 96.6159 122.678 97.2863 122.601 97.9567C122.509 98.7605 122.417 99.5623 122.325 100.366C122.29 100.68 122.254 100.993 122.218 101.309H123.052L123.05 101.307Z" fill="white"/>
<path d="M122.156 48.8285C122.294 48.8153 122.428 48.7628 122.54 48.6839C122.638 48.6144 122.713 48.5262 122.768 48.436C122.775 48.4247 122.781 48.4116 122.788 48.4003C122.79 48.3966 122.794 48.3909 122.796 48.3872C122.987 48.0266 122.843 47.544 122.495 47.3375C122.152 47.1328 121.712 47.2022 121.449 47.5065C121.16 47.8426 121.213 48.3985 121.573 48.6651C121.722 48.774 121.893 48.836 122.075 48.836C122.101 48.836 122.127 48.836 122.152 48.8322L122.156 48.8285Z" fill="black"/>
<path d="M121.684 55.7703C121.787 55.744 121.883 55.7008 121.967 55.6389C121.977 55.6332 121.984 55.6257 121.994 55.6201C121.995 55.6201 121.997 55.6163 121.999 55.6144C122.003 55.6107 122.007 55.6088 122.011 55.6051C122.27 55.3872 122.354 54.9816 122.193 54.6811C122.097 54.5046 121.943 54.36 121.748 54.3018C121.558 54.2436 121.359 54.2549 121.179 54.3412C120.771 54.5403 120.632 55.068 120.878 55.4436C121.015 55.6539 121.265 55.7891 121.515 55.7891C121.571 55.7891 121.627 55.7816 121.684 55.7684V55.7703Z" fill="black"/>
<path d="M106.566 89.4071V90.239C111.632 89.5273 116.699 88.8099 121.788 88.2804C122.27 88.2484 122.308 87.5292 121.818 87.456C121.621 87.4447 121.42 87.5048 121.222 87.5142C117.037 87.9461 112.866 88.5114 108.699 89.1048C107.989 89.208 107.277 89.3094 106.566 89.4071Z" fill="black"/>
<path d="M129.253 90.8169C129.34 90.6084 129.238 90.3624 129.03 90.276C127.856 89.784 126.681 89.2995 125.505 88.8113C124.908 88.5634 124.311 88.3155 123.714 88.0676C123.424 87.9475 123.133 87.8273 122.844 87.7052C122.653 87.6245 122.457 87.5493 122.268 87.4648C122.061 87.3728 121.811 87.4836 121.727 87.6883C121.639 87.8986 121.744 88.139 121.948 88.2291C122.223 88.3512 122.502 88.4582 122.778 88.5747C123.163 88.7343 123.548 88.8939 123.931 89.0554C124.686 89.369 125.439 89.6826 126.194 89.9962C127.034 90.3436 127.871 90.691 128.709 91.0422C128.759 91.0629 128.812 91.0722 128.865 91.0722C129.028 91.0722 129.184 90.9765 129.25 90.8187L129.253 90.8169Z" fill="black"/>
<path d="M119.754 85.4513C119.801 85.3555 119.827 85.2522 119.833 85.1489V85.1452C119.833 85.1189 119.833 85.0926 119.833 85.0644C119.833 85.0438 119.829 85.025 119.825 85.0062C119.81 84.8804 119.767 84.7583 119.69 84.6569C119.574 84.5011 119.423 84.4015 119.237 84.3489C119.031 84.2907 118.794 84.3414 118.618 84.4579C118.453 84.5687 118.345 84.7339 118.295 84.9236C118.18 85.3442 118.479 85.7836 118.896 85.8719C118.946 85.8832 118.999 85.8869 119.05 85.8869C119.343 85.8869 119.624 85.7179 119.754 85.4513Z" fill="black"/>
<path d="M106.564 74.8217L127.694 89.7189L115.801 79.5671L106.564 72.4668V74.8217Z" fill="black"/>
<path d="M22.028 100.892C22.2571 100.892 22.4412 100.706 22.4412 100.479V87.5928C22.4412 87.3637 22.2552 87.1797 22.028 87.1797C21.8008 87.1797 21.6149 87.3656 21.6149 87.5928V100.479C21.6149 100.708 21.8008 100.892 22.028 100.892Z" fill="black"/>
<path d="M22.0279 53.1684C22.257 53.1684 22.441 52.9825 22.441 52.7553V1.90229C22.441 1.30888 22.9236 0.828146 23.5152 0.828146H105.077C105.671 0.828146 106.151 1.31076 106.151 1.90229V50.9525C106.151 51.1816 106.337 51.3657 106.564 51.3657C106.792 51.3657 106.978 51.1797 106.978 50.9525V1.90229C106.978 0.852557 106.125 0 105.075 0H23.5133C22.4636 0 21.611 0.852557 21.611 1.90229V52.7534C21.611 52.9825 21.7969 53.1665 22.0241 53.1665L22.0279 53.1684Z" fill="black"/>
<path d="M106.566 100.891C106.795 100.891 106.979 100.705 106.979 100.478V72.4678C106.979 72.2387 106.793 72.0547 106.566 72.0547C106.339 72.0547 106.153 72.2406 106.153 72.4678V100.478C106.153 100.707 106.339 100.891 106.566 100.891Z" fill="black"/>
<path d="M32.657 19.5293H65.6908C66.3379 19.5293 66.8625 20.0539 66.8625 20.7011V45.0572C66.8625 45.7044 66.3379 46.229 65.6908 46.229H32.657C32.0098 46.229 31.4852 45.7044 31.4852 45.0572V20.7011C31.4852 20.0539 32.0098 19.5293 32.657 19.5293Z" fill="#8EBAE9"/>
<path d="M32.6565 46.6415H65.6903C66.5654 46.6415 67.2771 45.9298 67.2771 45.0547V20.6986C67.2771 19.8235 66.5654 19.1118 65.6903 19.1118H32.6565C31.7814 19.1118 31.0697 19.8235 31.0697 20.6986V45.0547C31.0697 45.9298 31.7814 46.6415 32.6565 46.6415ZM65.6903 19.9418C66.1091 19.9418 66.449 20.2817 66.449 20.7005V45.0566C66.449 45.4754 66.1091 45.8153 65.6903 45.8153H32.6565C32.2377 45.8153 31.8978 45.4754 31.8978 45.0566V20.7005C31.8978 20.2817 32.2377 19.9418 32.6565 19.9418H65.6903Z" fill="black"/>
<path d="M55.0396 39.7837L54.6002 41.9377H44.7375L45.1544 39.7837H48.7581L50.7562 29.8141H47.1976L47.6145 27.6602H53.8659L51.4378 39.7837H55.0396Z" fill="#101113"/>
<path d="M52.0346 23.106H54.8251L54.2749 25.7425H51.5088L52.0346 23.106Z" fill="#101113"/>
<path d="M77.492 19.5293H95.9346C96.5818 19.5293 97.1064 20.0539 97.1064 20.7011V45.0572C97.1064 45.7044 96.5818 46.229 95.9346 46.229H77.492C76.8448 46.229 76.3202 45.7044 76.3202 45.0572V20.7011C76.3202 20.0539 76.8448 19.5293 77.492 19.5293Z" fill="white"/>
<path d="M77.493 46.6415H95.9357C96.8107 46.6415 97.5225 45.9298 97.5225 45.0547V20.6986C97.5225 19.8235 96.8107 19.1118 95.9357 19.1118H77.493C76.6179 19.1118 75.9081 19.8235 75.9081 20.6986V45.0547C75.9081 45.9298 76.6198 46.6415 77.493 46.6415ZM95.9357 19.9418C96.3544 19.9418 96.6943 20.2817 96.6943 20.7005V45.0566C96.6943 45.4754 96.3544 45.8153 95.9357 45.8153H77.493C77.0742 45.8153 76.7343 45.4754 76.7343 45.0566V20.7005C76.7343 20.2817 77.0742 19.9418 77.493 19.9418H95.9357Z" fill="black"/>
<path d="M32.6562 90.252H74.5949C74.824 90.252 75.0081 90.0661 75.0081 89.8389C75.0081 89.6117 74.8221 89.4257 74.5949 89.4257H32.6562C32.2375 89.4257 31.8976 89.0858 31.8976 88.6671V85.2925C31.8976 85.0634 31.7117 84.8794 31.4844 84.8794C31.2572 84.8794 31.0713 85.0653 31.0713 85.2925V88.6671C31.0713 89.5422 31.783 90.2539 32.6581 90.2539L32.6562 90.252Z" fill="black"/>
<path d="M75.8216 54.1681H85.6411C85.8702 54.1681 86.0542 53.9822 86.0542 53.7549C86.0542 53.5277 85.8683 53.3418 85.6411 53.3418H75.8216C75.5925 53.3418 75.4085 53.5277 75.4085 53.7549C75.4085 53.9822 75.5944 54.1681 75.8216 54.1681Z" fill="black"/>
<path d="M31.4844 54.1681H71.0908C71.3199 54.1681 71.5039 53.9822 71.5039 53.7549C71.5039 53.5277 71.318 53.3418 71.0908 53.3418H31.4844C31.2553 53.3418 31.0713 53.5277 31.0713 53.7549C31.0713 53.9822 31.2572 54.1681 31.4844 54.1681Z" fill="black"/>
<path d="M38.0527 60.4322H90.2089C90.438 60.4322 90.6221 60.2463 90.6221 60.0191C90.6221 59.7919 90.4362 59.606 90.2089 59.606H38.0527C37.8236 59.606 37.6396 59.7919 37.6396 60.0191C37.6396 60.2463 37.8255 60.4322 38.0527 60.4322Z" fill="black"/>
<path d="M52.5208 66.6949H90.854C91.0831 66.6949 91.2671 66.509 91.2671 66.2818C91.2671 66.0546 91.0812 65.8687 90.854 65.8687H52.5208C52.2917 65.8687 52.1077 66.0546 52.1077 66.2818C52.1077 66.509 52.2936 66.6949 52.5208 66.6949Z" fill="black"/>
<path d="M40.8334 66.6949H47.791C48.0201 66.6949 48.2041 66.509 48.2041 66.2818C48.2041 66.0546 48.0182 65.8687 47.791 65.8687H40.8334C40.6043 65.8687 40.4203 66.0546 40.4203 66.2818C40.4203 66.509 40.6062 66.6949 40.8334 66.6949Z" fill="black"/>
<path d="M1.20553 92.0586C2.2609 93.114 3.97166 93.114 5.02703 92.0586L15.9863 81.0993L12.1648 77.2778L1.20553 88.2371C0.150165 89.2925 0.150165 91.0032 1.20553 92.0586Z" fill="#8EBAE9"/>
<path d="M14.5174 79.0518C9.80709 74.3415 9.80708 66.7045 14.5174 61.9941C19.2278 57.2837 26.8648 57.2837 31.5752 61.9941C36.2855 66.7045 36.2855 74.3414 31.5751 79.0518C26.8648 83.7622 19.2278 83.7622 14.5174 79.0518Z" fill="white"/>
<path d="M23.0317 64.8872C23.0451 64.9274 23.0508 64.9427 23.0642 64.9791C23.0527 64.9485 23.0431 64.9178 23.0317 64.8872Z" fill="black"/>
<path d="M26.1712 82.965C26.2295 82.965 26.2896 82.9519 26.3478 82.9256C26.5543 82.8279 26.6426 82.5819 26.5468 82.3754L15.9669 59.8915C15.8692 59.6849 15.6232 59.5967 15.4166 59.6924C15.2101 59.7901 15.1218 60.0361 15.2176 60.2427L25.7975 82.7265C25.8689 82.8767 26.0173 82.965 26.1731 82.965H26.1712Z" fill="black"/>
<path d="M29.9222 81.0569C29.9804 81.0569 30.0405 81.0437 30.0987 81.0174C30.3053 80.9198 30.3936 80.6738 30.2978 80.4672L24.8388 68.8676C24.7412 68.661 24.4952 68.5727 24.2886 68.6685C24.082 68.7662 23.9938 69.0122 24.0895 69.2187L29.5485 80.8184C29.6199 80.9686 29.7682 81.0569 29.9241 81.0569H29.9222Z" fill="black"/>
<path d="M22.8221 65.9657C22.8803 65.9657 22.9404 65.9525 22.9986 65.9262C23.2052 65.8286 23.2935 65.5826 23.1977 65.376L19.718 57.9828C19.6203 57.7762 19.3743 57.688 19.1678 57.7837C18.9612 57.8814 18.8729 58.1274 18.9687 58.334L22.4484 65.7272C22.5198 65.8774 22.6681 65.9657 22.824 65.9657H22.8221Z" fill="black"/>
<path d="M23.3959 59.3956C23.8503 59.4237 24.2991 59.4763 24.7479 59.5495C25.2512 59.6434 25.747 59.7674 26.2352 59.9195C26.7047 60.0753 27.1648 60.2613 27.6136 60.4697C28.0511 60.6857 28.4736 60.926 28.8849 61.1889C29.2905 61.4612 29.6793 61.756 30.0511 62.0734C30.4229 62.402 30.7722 62.7494 31.1027 63.1194C31.4125 63.4799 31.7036 63.8555 31.9721 64.2461C32.22 64.6254 32.4472 65.0142 32.6557 65.4142C32.8679 65.8479 33.0576 66.2892 33.2209 66.7418C33.3674 67.1737 33.4913 67.6132 33.5909 68.0582C33.6923 68.5559 33.7618 69.0572 33.8068 69.5624C33.835 70.0112 33.8406 70.4581 33.8237 70.907C33.7956 71.3764 33.7449 71.844 33.666 72.3079C33.5702 72.8036 33.4519 73.29 33.2998 73.7726C33.1421 74.2421 32.958 74.7003 32.7477 75.151C32.5336 75.581 32.2989 75.9979 32.0397 76.4035C31.7693 76.8091 31.4764 77.1941 31.1628 77.5678C30.8435 77.9321 30.5036 78.2758 30.145 78.6006C29.7638 78.9311 29.3656 79.2391 28.9488 79.5227C28.5844 79.7612 28.2089 79.9865 27.8183 80.1856C27.7882 80.2006 27.7601 80.2156 27.7319 80.2287C27.3263 80.424 26.915 80.5968 26.4925 80.7508C26.0418 80.9029 25.5855 81.0325 25.1198 81.1358C24.6559 81.2297 24.1902 81.2973 23.7189 81.3405C23.5386 81.3536 23.3564 81.363 23.1743 81.3686C22.8795 81.3761 22.5827 81.3743 22.2879 81.363C21.8109 81.3348 21.3358 81.2785 20.8664 81.1977C20.3969 81.1057 19.9368 80.9912 19.4805 80.8503C19.3396 80.8034 19.2026 80.7546 19.0636 80.7039C18.904 80.6438 18.7444 80.5818 18.5885 80.5161C18.4307 80.4503 18.2749 80.3827 18.119 80.3114C18.0495 80.2776 17.9782 80.2419 17.9087 80.2062C17.5406 80.0184 17.1838 79.8137 16.8346 79.5903C16.4289 79.318 16.0383 79.025 15.6628 78.7095C15.4712 78.5405 15.2872 78.3678 15.1069 78.1894L15.0487 78.1312C14.983 78.0654 14.9172 77.9978 14.8534 77.9302C14.8515 77.9283 14.8496 77.9265 14.8496 77.9265C14.7651 77.8382 14.6806 77.7481 14.5999 77.6579C14.5154 77.5603 14.4327 77.4608 14.3501 77.3575C14.2863 77.2805 14.2243 77.2016 14.1623 77.1209C14.106 77.0495 14.0515 76.9781 13.9971 76.9049C13.9126 76.7941 13.8318 76.6814 13.7511 76.5669C13.49 76.1725 13.2497 75.765 13.03 75.3463C12.814 74.9068 12.6225 74.4599 12.4572 73.9998C12.3145 73.5773 12.1924 73.1473 12.0929 72.7116C11.9971 72.2365 11.9239 71.7595 11.8788 71.275C11.845 70.783 11.8375 70.2929 11.8563 69.799C11.8882 69.3333 11.9408 68.8713 12.0197 68.4094C12.1154 67.9136 12.2394 67.4272 12.3896 66.9465C12.538 66.5071 12.7107 66.077 12.906 65.6545C13.1257 65.2076 13.3642 64.7776 13.6328 64.3607C13.9163 63.9381 14.2224 63.5363 14.5492 63.1494C14.8778 62.7814 15.2233 62.4358 15.5895 62.1053C15.9407 61.8049 16.305 61.5232 16.6862 61.2603C17.0862 60.9974 17.4974 60.7551 17.9218 60.5373C18.3312 60.3382 18.7519 60.1599 19.18 60.0059C19.6307 59.85 20.0889 59.7223 20.5546 59.619C21.0034 59.5289 21.4579 59.4613 21.841 59.4256C21.8673 59.4218 21.8936 59.42 21.9198 59.4181H21.9236C21.9499 59.4162 21.9762 59.4143 22.0025 59.4125C22.2842 59.3918 22.564 59.3843 22.8456 59.3843C23.0278 59.3843 23.2081 59.388 23.3902 59.3956H23.3959ZM26.5995 84.7C28.3215 84.2756 29.9759 83.547 31.4388 82.5404C33.0012 81.4644 34.3514 80.1142 35.4143 78.5405C35.5326 78.364 35.6472 78.1856 35.7561 78.0035C35.7861 77.9546 35.8143 77.9058 35.8443 77.857C37.6903 74.7622 38.3926 70.9727 37.6846 67.4272C37.5138 66.5653 37.279 65.7184 36.9635 64.8977C36.6443 64.0696 36.2537 63.2828 35.8049 62.5185C35.3692 61.7767 34.849 61.0669 34.2782 60.4228C33.7017 59.773 33.0838 59.1683 32.4059 58.6237C31.0182 57.5214 29.4614 56.637 27.7732 56.083C26.0869 55.5271 24.2972 55.2454 22.5189 55.3206C22.1602 55.3356 21.8053 55.36 21.4692 55.3957C21.4598 55.3957 21.4504 55.3994 21.4391 55.3994H21.4297C20.1246 55.5534 18.842 55.8482 17.6176 56.3327C16.3951 56.8172 15.259 57.4501 14.1943 58.2181C12.7858 59.2491 11.5802 60.5335 10.6113 61.9814C9.62162 63.4574 8.93431 65.1137 8.51742 66.8376C8.27518 67.8329 8.15499 68.8657 8.13246 69.8873V69.9492C8.11368 71.6506 8.36532 73.3257 8.89676 74.9425C9.4451 76.612 10.3146 78.18 11.4094 79.5508C11.415 79.5583 11.4206 79.564 11.4244 79.5696C11.7906 80.0259 12.1831 80.4578 12.5999 80.8653C12.9718 81.2297 13.3661 81.5752 13.7755 81.9001L13.8074 81.9264C14.1698 82.2193 14.5511 82.4935 14.9454 82.7489C15.4468 83.0737 15.9689 83.3667 16.5059 83.6258C16.8477 83.7911 17.197 83.9451 17.55 84.0822C19.2307 84.7413 21.0147 85.1 22.7086 85.1244H22.8456C22.9189 85.1281 22.9921 85.1281 23.0635 85.1281C24.2559 85.1281 25.4409 84.9742 26.5995 84.6962V84.7Z" fill="black"/>
<path d="M3.11722 93.263C3.91531 93.263 4.71341 92.9588 5.31996 92.3522L16.2793 81.3929C16.4408 81.2314 16.4408 80.9685 16.2793 80.807L12.4578 76.9856C12.3019 76.8297 12.0278 76.8297 11.8719 76.9856L0.912575 87.9449C0.324799 88.5326 -7.24792e-05 89.3157 -7.24792e-05 90.1476C-7.24792e-05 90.9795 0.324799 91.7626 0.912575 92.3504C1.51913 92.9569 2.31724 93.2611 3.11534 93.2611L3.11722 93.263ZM15.4023 81.1L4.73595 91.7663C3.84395 92.6583 2.39234 92.6583 1.50035 91.7663C1.06844 91.3344 0.829947 90.7598 0.829947 90.1476C0.829947 89.5354 1.06844 88.9627 1.50035 88.5289L12.1667 77.8625L15.4023 81.0981V81.1Z" fill="black"/>
<path d="M86.9965 24.3285H86.7261C82.9629 24.3285 80.9329 26.0618 80.9329 29.3106V30.9349H84.3713V29.3106C84.3713 27.7951 85.237 27.0627 86.7261 27.0627H86.9965C88.4857 27.0627 89.3796 27.7932 89.3796 29.2824V29.6073C89.3796 32.5574 84.9947 31.1434 84.9947 36.1517H88.4331C88.4331 33.0269 92.818 34.0165 92.818 29.4702V29.1453C92.818 26.0318 90.7598 24.3267 86.9984 24.3267L86.9965 24.3285Z" fill="#101113"/>
<path d="M88.4318 38.3208H84.9934V41.4287H88.4318V38.3208Z" fill="#101113"/>
<path d="M77.3083 95.7859L84.2095 90.9185L91.1125 95.7859V73.7246H77.3083V95.7859Z" fill="#8EBAE9"/>
<path d="M93.4775 90.2513H95.9357C96.8107 90.2513 97.5225 89.5396 97.5225 88.6645V74.8959C97.5225 74.0208 96.8107 73.3091 95.9357 73.3091H40.833C40.6039 73.3091 40.4199 73.495 40.4199 73.7222C40.4199 73.9494 40.6058 74.1354 40.833 74.1354H95.9357C96.3544 74.1354 96.6943 74.4752 96.6943 74.894V88.6626C96.6943 89.0814 96.3544 89.4213 95.9357 89.4213H93.4775C93.2484 89.4213 93.0644 89.6072 93.0644 89.8344C93.0644 90.0616 93.2503 90.2476 93.4775 90.2476V90.2513Z" fill="black"/>
<path d="M40.8327 79.524H60.3044C60.5335 79.524 60.7175 79.3381 60.7175 79.1109C60.7175 78.8837 60.5316 78.6978 60.3044 78.6978H40.8327C40.6036 78.6978 40.4195 78.8837 40.4195 79.1109C40.4195 79.3381 40.6054 79.524 40.8327 79.524Z" fill="#8EBAE9"/>
<path d="M63.8516 79.524H74.5949C74.824 79.524 75.0081 79.3381 75.0081 79.1109C75.0081 78.8837 74.8221 78.6978 74.5949 78.6978H63.8516C63.6225 78.6978 63.4384 78.8837 63.4384 79.1109C63.4384 79.3381 63.6244 79.524 63.8516 79.524Z" fill="#8EBAE9"/>
<path d="M37.135 84.3541H74.5949C74.824 84.3541 75.0081 84.1682 75.0081 83.941C75.0081 83.7137 74.8221 83.5278 74.5949 83.5278H37.135C36.9059 83.5278 36.7218 83.7137 36.7218 83.941C36.7218 84.1682 36.9078 84.3541 37.135 84.3541Z" fill="#8EBAE9"/>
<path d="M77.3093 92.747C77.5384 92.747 77.7224 92.561 77.7224 92.3338V87.3443C77.7224 87.1152 77.5365 86.9312 77.3093 86.9312C77.0821 86.9312 76.8961 87.1171 76.8961 87.3443V92.3338C76.8961 92.5629 77.0821 92.747 77.3093 92.747Z" fill="black"/>
<path d="M77.3093 84.354C77.5384 84.354 77.7224 84.1681 77.7224 83.9409V73.7271C77.7224 73.498 77.5365 73.314 77.3093 73.314C77.0821 73.314 76.8961 73.4999 76.8961 73.7271V83.9409C76.8961 84.17 77.0821 84.354 77.3093 84.354Z" fill="black"/>
<path d="M91.113 85.1709C91.3421 85.1709 91.5261 84.985 91.5261 84.7578V73.7271C91.5261 73.498 91.3402 73.314 91.113 73.314C90.8858 73.314 90.6999 73.4999 90.6999 73.7271V84.7578C90.6999 84.9869 90.8858 85.1709 91.113 85.1709Z" fill="black"/>
<path d="M69.7734 30.9565C70.2222 30.765 70.6729 30.5772 71.1217 30.3857C71.3489 30.2598 71.6851 30.2185 71.7714 29.9387C71.8334 29.7322 71.7151 29.4749 71.4954 29.4223C71.3095 29.3697 71.148 29.4655 70.9865 29.5425C70.4907 29.7641 69.9856 29.9669 69.4861 30.1791C69.0992 30.3312 69.1762 30.8176 69.4635 30.9509C69.5499 30.9903 69.6551 30.9997 69.7715 30.9565H69.7734Z" fill="black"/>
<path d="M69.7734 35.0802C70.2222 35.2717 70.6729 35.4595 71.1217 35.6511C71.3489 35.7769 71.6851 35.8182 71.7714 36.098C71.8334 36.3046 71.7151 36.5618 71.4954 36.6144C71.3095 36.667 71.148 36.5712 70.9865 36.4942C70.4907 36.2726 69.9856 36.0698 69.4861 35.8576C69.0992 35.7055 69.1762 35.2191 69.4635 35.0858C69.5499 35.0464 69.6551 35.037 69.7715 35.0802H69.7734Z" fill="black"/>
<path d="M70.0971 33.4894C71.0079 33.4575 71.9187 33.4707 72.8313 33.4688C73.0567 33.4688 73.2426 33.2735 73.2407 33.05C73.2388 32.8228 73.0473 32.6406 72.8219 32.6406C71.8792 32.6444 70.9347 32.6275 69.9957 32.6669C69.53 32.7289 69.5375 33.3279 69.8812 33.4669C69.9431 33.4913 70.0164 33.5026 70.099 33.4913L70.0971 33.4894Z" fill="black"/>
<path d="M28.5703 30.9565C28.1215 30.765 27.6708 30.5772 27.222 30.3857C26.9947 30.2598 26.6586 30.2185 26.5722 29.9387C26.5102 29.7322 26.6285 29.4749 26.8483 29.4223C27.0342 29.3697 27.1957 29.4655 27.3572 29.5425C27.8529 29.7641 28.3581 29.9669 28.8576 30.1791C29.2444 30.3312 29.1674 30.8176 28.8801 30.9509C28.7937 30.9903 28.6886 30.9997 28.5722 30.9565H28.5703Z" fill="black"/>
<path d="M28.5703 35.0802C28.1215 35.2717 27.6708 35.4595 27.222 35.6511C26.9947 35.7769 26.6586 35.8182 26.5722 36.098C26.5102 36.3046 26.6285 36.5618 26.8483 36.6144C27.0342 36.667 27.1957 36.5712 27.3572 36.4942C27.8529 36.2726 28.3581 36.0698 28.8576 35.8576C29.2444 35.7055 29.1674 35.2191 28.8801 35.0858C28.7937 35.0464 28.6886 35.037 28.5722 35.0802H28.5703Z" fill="black"/>
<path d="M28.246 33.4894C27.3352 33.4575 26.4244 33.4707 25.5118 33.4688C25.2864 33.4688 25.1005 33.2735 25.1024 33.05C25.1043 32.8228 25.2958 32.6406 25.5211 32.6406C26.4638 32.6444 27.4084 32.6275 28.3474 32.6669C28.8131 32.7289 28.8056 33.3279 28.4619 33.4669C28.3999 33.4913 28.3267 33.5026 28.2441 33.4913L28.246 33.4894Z" fill="black"/>
<path d="M7.40504 100.893H157.592C157.821 100.893 158.005 100.707 158.005 100.48C158.005 100.252 157.819 100.066 157.592 100.066H7.40317C7.17407 100.066 6.99005 100.252 6.99005 100.48C6.99005 100.707 7.17595 100.893 7.40317 100.893H7.40504Z" fill="black"/>
</svg>
