<svg width="66" height="66" viewBox="0 0 66 66" fill="none" xmlns="http://www.w3.org/2000/svg">
<g clip-path="url(#clip0_1042_3137)">
<path d="M7.31055 3L15.9405 11.62L54.1205 49.81L62.7505 58.43V24.49L41.2505 3H7.31055Z" fill="#F5584C"/>
<path d="M3.21094 0H34.9509C37.0709 0 39.1109 0.84 40.6109 2.34L41.2609 2.99H3.66094L3.21094 0Z" fill="#F5584C"/>
<path d="M7.31 3.00166L5.65 1.34166C5.39 1.08166 5.11 0.831663 4.81 0.611663C2.84 -0.878337 0 0.521662 0 3.00166H7.31Z" fill="#191E4D"/>
<path d="M65.74 62.5305V30.7905C65.74 28.6705 64.9 26.6305 63.4 25.1305L62.75 24.4805V62.0805L65.74 62.5205V62.5305Z" fill="#F5584C"/>
<path d="M62.75 58.4297L64.41 60.0897C64.67 60.3497 64.92 60.6297 65.14 60.9297C66.64 62.9097 65.24 65.7497 62.76 65.7497V58.4397L62.75 58.4297Z" fill="#191E4D"/>
<path d="M41.1684 14.1265L42.6335 15.5916L38.3966 19.8286C38.0732 20.152 37.8422 20.4622 37.7036 20.7592C37.5782 21.0562 37.5518 21.3532 37.6244 21.6501C37.7036 21.9405 37.8917 22.2342 38.1887 22.5312C38.4856 22.8282 38.776 23.013 39.0598 23.0856C39.3568 23.1582 39.6538 23.1318 39.9508 23.0064C40.2544 22.8744 40.5678 22.6467 40.8912 22.3233L45.1282 18.0863L46.5933 19.5514L42.5147 23.63C41.835 24.3098 41.1882 24.7784 40.5744 25.0358C39.9607 25.2932 39.3502 25.3295 38.743 25.1447C38.1425 24.9533 37.5122 24.5276 36.8522 23.8676C36.1923 23.2077 35.7666 22.5774 35.5752 21.9768C35.3904 21.3697 35.4267 20.7592 35.6841 20.1454C35.9415 19.5316 36.4101 18.8849 37.0898 18.2051L41.1684 14.1265ZM47.5239 16.1658L44.455 16.5816L44.0096 15.2848L46.9101 14.3443L47.5239 16.1658ZM48.382 21.3402L51.9855 24.9436L47.0753 29.8537C46.6529 30.2761 46.191 30.5533 45.6894 30.6853C45.1944 30.8239 44.6862 30.8107 44.1649 30.6457C43.6567 30.4807 43.165 30.1606 42.6898 29.6854C42.0101 29.0057 41.6603 28.2995 41.6405 27.5669C41.6273 26.841 41.8616 26.1381 42.3434 25.4584L44.0263 26.5869C43.7887 26.9301 43.6633 27.2535 43.6501 27.557C43.6435 27.854 43.7557 28.118 43.9867 28.349C44.2045 28.5668 44.4585 28.6823 44.7489 28.6955C45.0459 28.7153 45.3429 28.5767 45.6399 28.2797L49.273 24.6466L47.1743 22.5479L48.382 21.3402Z" fill="#FEF3F2"/>
</g>
<defs>
<clipPath id="clip0_1042_3137">
<rect width="65.75" height="65.75" fill="white"/>
</clipPath>
</defs>
</svg>
