<svg width="377" height="279" viewBox="0 0 377 279" fill="none" xmlns="http://www.w3.org/2000/svg">
<path d="M115.862 0H14.26C6.38441 0 0 6.38441 0 14.26V115.862C0 123.738 6.38441 130.122 14.26 130.122H115.862C123.738 130.122 130.122 123.738 130.122 115.862V14.26C130.122 6.38441 123.738 0 115.862 0Z" fill="#EFFEF6"/>
<path d="M57.0781 72.5338C55.4996 72.5338 54.1497 72.2105 53.0279 71.5641C51.9251 70.9177 51.079 70.0051 50.4896 68.8262C49.9002 67.6284 49.6055 66.2309 49.6055 64.6338C49.6055 63.2267 49.8146 61.9054 50.2329 60.6695C50.6512 59.4336 51.2026 58.2928 51.8871 57.2471C52.5905 56.1823 53.3606 55.2317 54.1972 54.3951C55.0338 53.5585 55.8799 52.855 56.7355 52.2846H62.6395C61.0228 53.4444 59.6253 54.5472 58.4471 55.5929C57.268 56.6197 56.3077 57.6749 55.5661 58.7587C54.8436 59.8234 54.3493 60.9927 54.0831 62.2666L54.3398 62.3522C54.5679 61.8388 54.8627 61.354 55.2239 60.8977C55.5851 60.4413 56.051 60.0706 56.6214 59.7854C57.1922 59.5002 57.8954 59.3576 58.7323 59.3576C59.8348 59.3576 60.8232 59.6143 61.6984 60.1276C62.5727 60.622 63.267 61.335 63.7803 62.2666C64.2937 63.1982 64.5504 64.2915 64.5504 65.5464C64.5504 66.8964 64.2367 68.1037 63.6092 69.1684C63.0005 70.2141 62.1351 71.0412 61.0139 71.6497C59.9105 72.2391 58.5986 72.5338 57.0781 72.5338ZM57.0781 69.197C57.7056 69.197 58.2377 69.0829 58.6753 68.8547C59.1316 68.6076 59.4827 68.2653 59.7305 67.828C59.9774 67.3717 60.1013 66.8203 60.1013 66.1738V65.6605C60.1013 65.0141 59.9774 64.4722 59.7305 64.0348C59.4827 63.5785 59.1316 63.2363 58.6753 63.0081C58.2377 62.761 57.7056 62.6374 57.0781 62.6374C56.4503 62.6374 55.9084 62.761 55.4521 63.0081C55.0147 63.2363 54.6725 63.5785 54.4253 64.0348C54.1782 64.4722 54.0546 65.0141 54.0546 65.6605V66.1738C54.0546 66.8203 54.1782 67.3717 54.4253 67.828C54.6725 68.2653 55.0147 68.6076 55.4521 68.8547C55.9084 69.0829 56.4503 69.197 57.0781 69.197ZM74.0644 72.5338C72.3345 72.5338 70.8987 72.125 69.7579 71.3074C68.6171 70.4899 67.7713 69.3206 67.2197 67.7995C66.668 66.2594 66.3926 64.4056 66.3926 62.2381C66.3926 60.0706 66.668 58.2168 67.2197 56.6767C67.7713 55.1366 68.6171 53.9673 69.7579 53.1687C70.8987 52.3512 72.3345 51.9424 74.0644 51.9424C75.814 51.9424 77.2489 52.3512 78.371 53.1687C79.5118 53.9673 80.3576 55.1366 80.9092 56.6767C81.4609 58.2168 81.7363 60.0706 81.7363 62.2381C81.7363 64.4056 81.4609 66.2594 80.9092 67.7995C80.3576 69.3206 79.5118 70.4899 78.371 71.3074C77.2489 72.125 75.814 72.5338 74.0644 72.5338ZM74.0644 68.9118C74.8247 68.9118 75.4236 68.7217 75.8612 68.3414C76.2988 67.9611 76.6125 67.4192 76.8024 66.7157C76.9922 65.9932 77.0876 65.1281 77.0876 64.1204V60.3558C77.0876 59.348 76.9922 58.4924 76.8024 57.789C76.6125 57.0664 76.2988 56.5151 75.8612 56.1348C75.4236 55.7545 74.8247 55.5644 74.0644 55.5644C73.3042 55.5644 72.7053 55.7545 72.2677 56.1348C71.8301 56.5151 71.5164 57.0664 71.3265 57.789C71.1367 58.4924 71.0413 59.348 71.0413 60.3558V64.1204C71.0413 65.1281 71.1367 65.9932 71.3265 66.7157C71.5164 67.4192 71.8301 67.9611 72.2677 68.3414C72.7053 68.7217 73.3042 68.9118 74.0644 68.9118Z" fill="#02311E"/>
<path d="M74.8666 108.732H17.8267C15.8578 108.732 14.2617 110.329 14.2617 112.297C14.2617 114.266 15.8578 115.862 17.8267 115.862H74.8666C76.8355 115.862 78.4316 114.266 78.4316 112.297C78.4316 110.329 76.8355 108.732 74.8666 108.732Z" fill="#B7FBDA"/>
<path d="M39.2167 94.4717H17.8267C15.8578 94.4717 14.2617 96.0678 14.2617 98.0367C14.2617 100.006 15.8578 101.602 17.8267 101.602H39.2167C41.1856 101.602 42.7817 100.006 42.7817 98.0367C42.7817 96.0678 41.1856 94.4717 39.2167 94.4717Z" fill="#DAFEEC"/>
<path d="M24.9567 14.2607H17.8267C15.8578 14.2607 14.2617 15.8568 14.2617 17.8257C14.2617 19.7946 15.8578 21.3907 17.8267 21.3907H24.9567C26.9256 21.3907 28.5217 19.7946 28.5217 17.8257C28.5217 15.8568 26.9256 14.2607 24.9567 14.2607Z" fill="#B7FBDA"/>
<path d="M112.297 108.732H105.167C103.198 108.732 101.602 110.329 101.602 112.297C101.602 114.266 103.198 115.862 105.167 115.862H112.297C114.265 115.862 115.862 114.266 115.862 112.297C115.862 110.329 114.265 108.732 112.297 108.732Z" fill="#41E798"/>
<path d="M112.297 94.4717H105.167C103.198 94.4717 101.602 96.0678 101.602 98.0367C101.602 100.006 103.198 101.602 105.167 101.602H112.297C114.265 101.602 115.862 100.006 115.862 98.0367C115.862 96.0678 114.265 94.4717 112.297 94.4717Z" fill="#7FF6BE"/>
<path d="M65.0982 24.9551C85.3071 24.9551 101.676 41.3469 101.676 61.5485H98.1109C98.1109 43.3133 83.3358 28.5201 65.0982 28.5201C46.8597 28.5201 32.0846 43.3005 32.0845 61.5485H28.5195C28.5196 41.3331 44.8894 24.9551 65.0982 24.9551Z" fill="#DAFEEC"/>
<path d="M65.1007 21.3896C76.1765 21.3896 86.2298 25.9009 93.4831 33.1569L85.9188 40.7177C80.5858 35.3828 73.2205 32.0846 65.1007 32.0846C56.9753 32.0846 49.6134 35.3733 44.286 40.7143C38.9476 46.0664 35.652 53.4252 35.652 61.5481H24.957C24.9571 50.4662 29.4673 40.4264 36.7139 33.1613L37.4032 32.4867C44.6022 25.6077 54.3748 21.3897 65.1007 21.3896Z" fill="#16C171"/>
<path d="M98.4583 28.7923L81.5715 45.6999L80.9414 45.0697L97.8281 28.1621L98.4583 28.7923Z" fill="#16C171"/>
<g style="mix-blend-mode:multiply" filter="url(#filter0_n_1049_10063)">
<path d="M84.6719 57.0404C84.6719 45.227 94.2483 35.6504 106.062 35.6504H123.887V130.123H84.6719V57.0404Z" fill="white"/>
</g>
<path d="M362.74 42.7803H106.061C98.1852 42.7803 91.8008 49.1647 91.8008 57.0403V221.03C91.8008 228.906 98.1852 235.29 106.061 235.29H362.74C370.616 235.29 377 228.906 377 221.03V57.0403C377 49.1647 370.616 42.7803 362.74 42.7803Z" fill="#EDF5FF"/>
<path d="M174.719 109.624C166.598 109.624 159.233 112.921 153.902 118.252L146.34 110.69C153.592 103.437 163.644 98.9288 174.719 98.9287V109.624Z" fill="#FFA9A2"/>
<path d="M174.719 98.9287C185.804 98.9287 195.845 103.421 203.103 110.693L195.533 118.249C190.205 112.91 182.856 109.624 174.719 109.624V98.9287Z" fill="#FFA9A2"/>
<path d="M204.365 109.43C211.938 117.003 216.649 127.504 216.649 139.071H202.389C202.389 131.442 199.293 124.525 194.281 119.514L204.365 109.43Z" fill="#FFE3E1"/>
<path d="M214.863 139.07C214.863 150.155 210.37 160.197 203.098 167.454L195.543 159.883C200.882 154.556 204.168 147.208 204.168 139.07H214.863Z" fill="#F5584C"/>
<path d="M203.099 167.45C195.846 174.702 185.794 179.212 174.719 179.212V168.517C182.839 168.517 190.204 165.219 195.537 159.887L203.099 167.45Z" fill="#F5584C"/>
<path d="M153.906 159.891C159.234 165.23 166.582 168.517 174.719 168.517V179.212C163.634 179.212 153.593 174.717 146.336 167.445L153.906 159.891Z" fill="#F5584C"/>
<path d="M145.277 139.07C145.277 147.191 148.574 154.556 153.906 159.888L146.343 167.45C139.091 160.198 134.582 150.145 134.582 139.07H145.277Z" fill="#FC776D"/>
<path d="M153.901 118.257C148.563 123.584 145.277 130.933 145.277 139.071H134.582C134.582 127.986 139.075 117.944 146.348 110.687L153.901 118.257Z" fill="#FC776D"/>
<path d="M166.667 57.04H109.627C107.659 57.04 106.062 58.6361 106.062 60.605C106.062 62.5739 107.659 64.17 109.627 64.17H166.667C168.636 64.17 170.232 62.5739 170.232 60.605C170.232 58.6361 168.636 57.04 166.667 57.04Z" fill="#FFCCC8"/>
<path d="M330.655 110.515H257.573C255.604 110.515 254.008 112.111 254.008 114.08C254.008 116.049 255.604 117.645 257.573 117.645H330.655C332.624 117.645 334.22 116.049 334.22 114.08C334.22 112.111 332.624 110.515 330.655 110.515Z" fill="#FFCCC8"/>
<path d="M278.963 128.34H257.573C255.604 128.34 254.008 129.936 254.008 131.905C254.008 133.874 255.604 135.47 257.573 135.47H278.963C280.932 135.47 282.528 133.874 282.528 131.905C282.528 129.936 280.932 128.34 278.963 128.34Z" fill="#FFCCC8"/>
<path d="M307.483 146.165H257.573C255.604 146.165 254.008 147.761 254.008 149.73C254.008 151.699 255.604 153.295 257.573 153.295H307.483C309.452 153.295 311.048 151.699 311.048 149.73C311.048 147.761 309.452 146.165 307.483 146.165Z" fill="#FFCCC8"/>
<path d="M293.223 163.989H257.573C255.604 163.989 254.008 165.585 254.008 167.554C254.008 169.523 255.604 171.119 257.573 171.119H293.223C295.192 171.119 296.788 169.523 296.788 167.554C296.788 165.585 295.192 163.989 293.223 163.989Z" fill="#FFCCC8"/>
<path d="M246.879 114.08C246.879 111.127 244.484 108.732 241.531 108.732C238.578 108.732 236.184 111.127 236.184 114.08C236.184 117.033 238.578 119.427 241.531 119.427C244.484 119.427 246.879 117.033 246.879 114.08Z" fill="#FFCCC8"/>
<path d="M246.879 131.904C246.879 128.951 244.484 126.557 241.531 126.557C238.578 126.557 236.184 128.951 236.184 131.904C236.184 134.857 238.578 137.252 241.531 137.252C244.484 137.252 246.879 134.857 246.879 131.904Z" fill="#FFA9A2"/>
<path d="M246.879 149.73C246.879 146.777 244.484 144.383 241.531 144.383C238.578 144.383 236.184 146.777 236.184 149.73C236.184 152.684 238.578 155.078 241.531 155.078C244.484 155.078 246.879 152.684 246.879 149.73Z" fill="#FC776D"/>
<path d="M246.879 167.555C246.879 164.601 244.484 162.207 241.531 162.207C238.578 162.207 236.184 164.601 236.184 167.555C236.184 170.508 238.578 172.902 241.531 172.902C244.484 172.902 246.879 170.508 246.879 167.555Z" fill="#F5584C"/>
<path d="M173.944 137.381C173.944 138.769 173.735 140.091 173.317 141.346C172.898 142.582 172.338 143.732 171.634 144.797C170.95 145.842 170.189 146.783 169.353 147.62C168.516 148.457 167.67 149.16 166.814 149.731H160.911C162.527 148.571 163.924 147.478 165.103 146.451C166.281 145.405 167.232 144.34 167.955 143.257C168.697 142.173 169.2 141.004 169.467 139.749L169.21 139.663C168.982 140.158 168.687 140.643 168.326 141.118C167.964 141.574 167.499 141.945 166.929 142.23C166.377 142.515 165.674 142.658 164.818 142.658C163.734 142.658 162.745 142.401 161.852 141.888C160.977 141.374 160.283 140.661 159.77 139.749C159.257 138.817 159 137.724 159 136.469C159 135.1 159.304 133.892 159.912 132.847C160.54 131.801 161.414 130.983 162.536 130.394C163.658 129.785 164.97 129.481 166.472 129.481C168.05 129.481 169.39 129.805 170.494 130.451C171.615 131.097 172.47 132.02 173.06 133.218C173.649 134.397 173.944 135.784 173.944 137.381ZM166.472 139.378C167.1 139.378 167.632 139.264 168.069 139.036C168.526 138.789 168.877 138.447 169.125 138.009C169.371 137.553 169.495 137.001 169.495 136.355V135.841C169.495 135.195 169.371 134.653 169.125 134.216C168.877 133.759 168.526 133.417 168.069 133.189C167.632 132.942 167.1 132.818 166.472 132.818C165.845 132.818 165.303 132.942 164.847 133.189C164.409 133.417 164.067 133.759 163.82 134.216C163.572 134.653 163.449 135.195 163.449 135.841V136.355C163.449 137.001 163.572 137.553 163.82 138.009C164.067 138.447 164.409 138.789 164.847 139.036C165.303 139.264 165.845 139.378 166.472 139.378ZM191.045 137.381C191.045 138.769 190.835 140.091 190.417 141.346C189.999 142.582 189.438 143.732 188.735 144.797C188.05 145.842 187.29 146.783 186.453 147.62C185.616 148.457 184.77 149.16 183.915 149.731H178.011C179.627 148.571 181.025 147.478 182.204 146.451C183.383 145.405 184.333 144.34 185.056 143.257C185.797 142.173 186.301 141.004 186.567 139.749L186.311 139.663C186.082 140.158 185.787 140.643 185.426 141.118C185.065 141.574 184.599 141.945 184.029 142.23C183.477 142.515 182.774 142.658 181.918 142.658C180.835 142.658 179.846 142.401 178.952 141.888C178.078 141.374 177.384 140.661 176.87 139.749C176.357 138.817 176.1 137.724 176.1 136.469C176.1 135.1 176.404 133.892 177.013 132.847C177.64 131.801 178.515 130.983 179.637 130.394C180.759 129.785 182.071 129.481 183.573 129.481C185.151 129.481 186.491 129.805 187.594 130.451C188.716 131.097 189.572 132.02 190.161 133.218C190.75 134.397 191.045 135.784 191.045 137.381ZM183.573 139.378C184.2 139.378 184.732 139.264 185.17 139.036C185.626 138.789 185.978 138.447 186.225 138.009C186.472 137.553 186.596 137.001 186.596 136.355V135.841C186.596 135.195 186.472 134.653 186.225 134.216C185.978 133.759 185.626 133.417 185.17 133.189C184.732 132.942 184.2 132.818 183.573 132.818C182.945 132.818 182.403 132.942 181.947 133.189C181.509 133.417 181.167 133.759 180.92 134.216C180.673 134.653 180.55 135.195 180.55 135.841V136.355C180.55 137.001 180.673 137.553 180.92 138.009C181.167 138.447 181.509 138.789 181.947 139.036C182.403 139.264 182.945 139.378 183.573 139.378Z" fill="#02311E"/>
<g style="mix-blend-mode:multiply" filter="url(#filter1_n_1049_10063)">
<path d="M91.8008 140.817H157.753C169.567 140.817 179.143 150.394 179.143 162.207V235.29H91.8008V140.817Z" fill="white"/>
</g>
<path d="M157.753 147.947H56.1506C48.275 147.947 41.8906 154.332 41.8906 162.207V263.81C41.8906 271.685 48.275 278.07 56.1506 278.07H157.753C165.629 278.07 172.013 271.685 172.013 263.81V162.207C172.013 154.332 165.629 147.947 157.753 147.947Z" fill="#DFEBFF"/>
<path d="M55.2617 256.68V260.245C55.2617 262.213 56.8578 263.81 58.8267 263.81C60.7956 263.81 62.3917 262.213 62.3917 260.245V256.68C62.3917 254.711 60.7956 253.115 58.8267 253.115C56.8578 253.115 55.2617 254.711 55.2617 256.68Z" fill="#C5DAFF"/>
<path d="M95.3634 162.207H59.7134C57.7445 162.207 56.1484 163.803 56.1484 165.772C56.1484 167.741 57.7445 169.337 59.7134 169.337H95.3634C97.3323 169.337 98.9284 167.741 98.9284 165.772C98.9284 163.803 97.3323 162.207 95.3634 162.207Z" fill="#C5DAFF"/>
<path d="M98.0391 201.422V260.245C98.0391 262.213 99.6352 263.81 101.604 263.81C103.573 263.81 105.169 262.213 105.169 260.245V201.422C105.169 199.453 103.573 197.857 101.604 197.857C99.6352 197.857 98.0391 199.453 98.0391 201.422Z" fill="#A2C1FF"/>
<path d="M87.3438 238.855V260.245C87.3438 262.213 88.9399 263.81 90.9087 263.81C92.8776 263.81 94.4737 262.213 94.4737 260.245V238.855C94.4737 236.886 92.8776 235.29 90.9087 235.29C88.9399 235.29 87.3438 236.886 87.3438 238.855Z" fill="#C5DAFF"/>
<path d="M65.9531 238.855V260.245C65.9531 262.213 67.5492 263.81 69.5181 263.81C71.487 263.81 73.0831 262.213 73.0831 260.245V238.855C73.0831 236.886 71.487 235.29 69.5181 235.29C67.5492 235.29 65.9531 236.886 65.9531 238.855Z" fill="#C5DAFF"/>
<path d="M76.6484 224.595V260.245C76.6484 262.213 78.2445 263.81 80.2134 263.81C82.1823 263.81 83.7784 262.213 83.7784 260.245V224.595C83.7784 222.626 82.1823 221.03 80.2134 221.03C78.2445 221.03 76.6484 222.626 76.6484 224.595Z" fill="#A2C1FF"/>
<path d="M151.516 238.855V260.245C151.516 262.213 153.112 263.81 155.081 263.81C157.05 263.81 158.646 262.213 158.646 260.245V238.855C158.646 236.886 157.05 235.29 155.081 235.29C153.112 235.29 151.516 236.886 151.516 238.855Z" fill="#C5DAFF"/>
<path d="M130.125 253.115V260.245C130.125 262.213 131.721 263.81 133.69 263.81C135.659 263.81 137.255 262.213 137.255 260.245V253.115C137.255 251.146 135.659 249.55 133.69 249.55C131.721 249.55 130.125 251.146 130.125 253.115Z" fill="#C5DAFF"/>
<path d="M140.82 165.772V260.245C140.82 262.213 142.416 263.81 144.385 263.81C146.354 263.81 147.95 262.213 147.95 260.245V165.772C147.95 163.803 146.354 162.207 144.385 162.207C142.416 162.207 140.82 163.803 140.82 165.772Z" fill="#5370F6"/>
<path d="M108.734 224.595V260.245C108.734 262.213 110.33 263.81 112.299 263.81C114.268 263.81 115.864 262.213 115.864 260.245V224.595C115.864 222.626 114.268 221.03 112.299 221.03C110.33 221.03 108.734 222.626 108.734 224.595Z" fill="#A2C1FF"/>
<path d="M122.995 256.68C121.026 256.68 119.43 258.276 119.43 260.245C119.43 262.213 121.026 263.81 122.995 263.81C124.964 263.81 126.56 262.213 126.56 260.245C126.56 258.276 124.964 256.68 122.995 256.68Z" fill="#C5DAFF"/>
<defs>
<filter id="filter0_n_1049_10063" x="84.6719" y="35.6504" width="39.2148" height="94.4727" filterUnits="userSpaceOnUse" color-interpolation-filters="sRGB">
<feFlood flood-opacity="0" result="BackgroundImageFix"/>
<feBlend mode="normal" in="SourceGraphic" in2="BackgroundImageFix" result="shape"/>
<feTurbulence type="fractalNoise" baseFrequency="0.66666668653488159 0.66666668653488159" stitchTiles="stitch" numOctaves="3" result="noise" seed="951" />
<feColorMatrix in="noise" type="luminanceToAlpha" result="alphaNoise" />
<feComponentTransfer in="alphaNoise" result="coloredNoise1">
<feFuncA type="discrete" tableValues="0 0 0 0 0 0 0 0 0 0 0 0 0 0 0 0 0 0 0 0 0 1 1 1 1 1 1 1 0 0 0 0 0 0 0 0 0 0 0 0 0 0 0 0 0 0 0 0 0 0 0 0 0 0 0 0 0 0 0 0 0 0 0 0 0 0 0 0 0 0 0 0 0 0 0 0 0 0 0 0 0 0 0 0 0 0 0 0 0 0 0 0 0 0 0 0 0 0 0 0 "/>
</feComponentTransfer>
<feComposite operator="in" in2="shape" in="coloredNoise1" result="noise1Clipped" />
<feFlood flood-color="#191E4D" result="color1Flood" />
<feComposite operator="in" in2="noise1Clipped" in="color1Flood" result="color1" />
<feMerge result="effect1_noise_1049_10063">
<feMergeNode in="shape" />
<feMergeNode in="color1" />
</feMerge>
</filter>
<filter id="filter1_n_1049_10063" x="91.8008" y="140.817" width="87.3438" height="94.4727" filterUnits="userSpaceOnUse" color-interpolation-filters="sRGB">
<feFlood flood-opacity="0" result="BackgroundImageFix"/>
<feBlend mode="normal" in="SourceGraphic" in2="BackgroundImageFix" result="shape"/>
<feTurbulence type="fractalNoise" baseFrequency="0.66666668653488159 0.66666668653488159" stitchTiles="stitch" numOctaves="3" result="noise" seed="951" />
<feColorMatrix in="noise" type="luminanceToAlpha" result="alphaNoise" />
<feComponentTransfer in="alphaNoise" result="coloredNoise1">
<feFuncA type="discrete" tableValues="0 0 0 0 0 0 0 0 0 0 0 0 0 0 0 0 0 0 0 0 0 1 1 1 1 1 1 1 0 0 0 0 0 0 0 0 0 0 0 0 0 0 0 0 0 0 0 0 0 0 0 0 0 0 0 0 0 0 0 0 0 0 0 0 0 0 0 0 0 0 0 0 0 0 0 0 0 0 0 0 0 0 0 0 0 0 0 0 0 0 0 0 0 0 0 0 0 0 0 0 "/>
</feComponentTransfer>
<feComposite operator="in" in2="shape" in="coloredNoise1" result="noise1Clipped" />
<feFlood flood-color="#191E4D" result="color1Flood" />
<feComposite operator="in" in2="noise1Clipped" in="color1Flood" result="color1" />
<feMerge result="effect1_noise_1049_10063">
<feMergeNode in="shape" />
<feMergeNode in="color1" />
</feMerge>
</filter>
</defs>
</svg>
